<svg width="128" height="48" viewBox="0 0 128 48" fill="none" xmlns="http://www.w3.org/2000/svg">
<g filter="url(#filter0_d_231_5669)">
<rect x="4" y="2" width="120" height="40" rx="3" fill="#FF7A24"/>
<rect x="4.5" y="2.5" width="119" height="39" rx="2.5" stroke="white"/>
</g>
<g filter="url(#filter1_d_231_5669)">
<path d="M23.9 15.98H42.1V18.16H23.9V15.98ZM26.28 22.78H31.46V24.56H26.28V22.78ZM26.28 25.86H31.46V27.62H26.28V25.86ZM34.66 19.74H36.86V27.94H34.66V19.74ZM30.64 19.52H32.94V29.44C32.94 29.9333 32.88 30.3333 32.76 30.64C32.64 30.9467 32.4133 31.1867 32.08 31.36C31.7333 31.5333 31.3267 31.64 30.86 31.68C30.4067 31.72 29.8733 31.74 29.26 31.74C29.1933 31.4333 29.0867 31.08 28.94 30.68C28.8067 30.2933 28.66 29.9667 28.5 29.7C28.86 29.7133 29.22 29.7267 29.58 29.74C29.94 29.74 30.18 29.7333 30.3 29.72C30.42 29.72 30.5067 29.6933 30.56 29.64C30.6133 29.5867 30.64 29.5067 30.64 29.4V19.52ZM38.66 19.18H41.02V29.16C41.02 29.7467 40.9467 30.2 40.8 30.52C40.6667 30.8533 40.4067 31.12 40.02 31.32C39.6333 31.4933 39.1667 31.6067 38.62 31.66C38.0733 31.7133 37.4333 31.7333 36.7 31.72C36.6467 31.4 36.5333 31.02 36.36 30.58C36.2 30.14 36.0267 29.7667 35.84 29.46C36.36 29.4867 36.8467 29.5 37.3 29.5C37.7667 29.5 38.08 29.4933 38.24 29.48C38.4 29.48 38.5067 29.46 38.56 29.42C38.6267 29.3667 38.66 29.2733 38.66 29.14V19.18ZM26.66 13.78L28.94 12.98C29.3 13.38 29.66 13.82 30.02 14.3C30.38 14.78 30.6467 15.2133 30.82 15.6L28.38 16.44C28.2467 16.08 28.0133 15.6467 27.68 15.14C27.36 14.6333 27.02 14.18 26.66 13.78ZM36.94 12.94L39.54 13.72C39.14 14.36 38.7267 14.9867 38.3 15.6C37.8867 16.2 37.5 16.72 37.14 17.16L34.98 16.42C35.22 16.1 35.46 15.74 35.7 15.34C35.94 14.94 36.1667 14.5333 36.38 14.12C36.6067 13.6933 36.7933 13.3 36.94 12.94ZM25 19.52H31.3V21.54H27.26V31.68H25V19.52ZM44.74 24.04C45.0467 23.8 45.3267 23.56 45.58 23.32C45.8467 23.0667 46.1333 22.7867 46.44 22.48C46.6667 22.24 46.9267 21.9467 47.22 21.6C47.5133 21.24 47.8267 20.8533 48.16 20.44C48.4933 20.0267 48.8267 19.6133 49.16 19.2C49.5067 18.7733 49.8333 18.38 50.14 18.02C50.8467 17.22 51.5333 16.7933 52.2 16.74C52.8667 16.6733 53.5667 17 54.3 17.72C54.7533 18.16 55.22 18.66 55.7 19.22C56.1933 19.78 56.6733 20.34 57.14 20.9C57.6067 21.46 58.04 21.9533 58.44 22.38C58.76 22.74 59.1 23.1133 59.46 23.5C59.8333 23.8867 60.2267 24.2933 60.64 24.72C61.0533 25.1467 61.4867 25.5733 61.94 26C62.3933 26.4267 62.8533 26.8533 63.32 27.28L61.26 29.68C60.7933 29.2133 60.3 28.7067 59.78 28.16C59.26 27.6133 58.7467 27.0533 58.24 26.48C57.7467 25.9067 57.28 25.38 56.84 24.9C56.44 24.4067 56.0133 23.8867 55.56 23.34C55.12 22.78 54.6933 22.2467 54.28 21.74C53.8667 21.2333 53.5 20.8067 53.18 20.46C52.9533 20.1933 52.7467 20.0267 52.56 19.96C52.3867 19.8933 52.2133 19.9067 52.04 20C51.88 20.0933 51.7067 20.2667 51.52 20.52C51.32 20.7733 51.0867 21.0733 50.82 21.42C50.5667 21.7667 50.2933 22.14 50 22.54C49.72 22.9267 49.4467 23.3067 49.18 23.68C48.9133 24.04 48.6667 24.36 48.44 24.64C48.2133 24.9733 47.9867 25.3067 47.76 25.64C47.5467 25.9733 47.3533 26.2733 47.18 26.54L44.74 24.04ZM69.1 24.1H83.66V26.16H69.1V24.1ZM77.48 25.38C77.96 26.6333 78.76 27.6067 79.88 28.3C81.0133 28.98 82.54 29.42 84.46 29.62C84.3 29.78 84.12 29.9867 83.92 30.24C83.7333 30.5067 83.56 30.7733 83.4 31.04C83.2533 31.3067 83.1333 31.5533 83.04 31.78C81.6 31.54 80.38 31.1667 79.38 30.66C78.3933 30.1667 77.5733 29.5133 76.92 28.7C76.2667 27.8733 75.7267 26.8733 75.3 25.7L77.48 25.38ZM74.96 21.74H77.44C77.3867 22.8067 77.3 23.7933 77.18 24.7C77.06 25.5933 76.8533 26.4133 76.56 27.16C76.28 27.8933 75.8733 28.5533 75.34 29.14C74.82 29.7267 74.1267 30.24 73.26 30.68C72.4067 31.1333 71.3467 31.5133 70.08 31.82C70.0133 31.62 69.9067 31.3933 69.76 31.14C69.6133 30.9 69.4533 30.66 69.28 30.42C69.1067 30.1933 68.94 30 68.78 29.84C70.18 29.5333 71.2867 29.1533 72.1 28.7C72.9133 28.2333 73.5133 27.6733 73.9 27.02C74.2867 26.3667 74.5467 25.6067 74.68 24.74C74.8133 23.86 74.9067 22.86 74.96 21.74ZM67.82 17.16H70.22V20.98C70.22 21.7667 70.1867 22.62 70.12 23.54C70.0533 24.4467 69.92 25.38 69.72 26.34C69.5333 27.3 69.26 28.2267 68.9 29.12C68.5533 30.0133 68.0933 30.8267 67.52 31.56C67.3733 31.4267 67.1733 31.2733 66.92 31.1C66.6667 30.94 66.4 30.78 66.12 30.62C65.8533 30.46 65.6133 30.3467 65.4 30.28C65.9467 29.6 66.38 28.8667 66.7 28.08C67.0333 27.28 67.28 26.4667 67.44 25.64C67.6 24.8 67.7 23.98 67.74 23.18C67.7933 22.3667 67.82 21.62 67.82 20.94V17.16ZM69 17.16H82.68V22.32H69V20.5H80.32V18.98H69V17.16ZM66.58 14.04H83.62V16.2H66.58V14.04ZM90.4 14.76C90.68 14.8 90.98 14.8267 91.3 14.84C91.62 14.8533 91.9267 14.86 92.22 14.86C92.4333 14.86 92.7533 14.86 93.18 14.86C93.6067 14.8467 94.0867 14.8333 94.62 14.82C95.1667 14.8067 95.7067 14.7933 96.24 14.78C96.7733 14.7667 97.2533 14.7533 97.68 14.74C98.12 14.7133 98.46 14.6933 98.7 14.68C99.1133 14.64 99.44 14.6067 99.68 14.58C99.92 14.54 100.1 14.5 100.22 14.46L101.52 16.24C101.293 16.3867 101.06 16.5333 100.82 16.68C100.58 16.8267 100.347 16.9867 100.12 17.16C99.8533 17.3467 99.5333 17.5933 99.16 17.9C98.7867 18.1933 98.3867 18.5067 97.96 18.84C97.5467 19.1733 97.14 19.5 96.74 19.82C96.3533 20.14 96 20.4267 95.68 20.68C96.0133 20.6 96.3333 20.5467 96.64 20.52C96.9467 20.48 97.26 20.46 97.58 20.46C98.7133 20.46 99.7267 20.68 100.62 21.12C101.527 21.56 102.24 22.16 102.76 22.92C103.293 23.6667 103.56 24.5267 103.56 25.5C103.56 26.5533 103.293 27.5067 102.76 28.36C102.227 29.2133 101.42 29.8933 100.34 30.4C99.2733 30.9067 97.9333 31.16 96.32 31.16C95.4 31.16 94.5667 31.0267 93.82 30.76C93.0867 30.4933 92.5067 30.1133 92.08 29.62C91.6533 29.1267 91.44 28.5467 91.44 27.88C91.44 27.3333 91.5867 26.8267 91.88 26.36C92.1867 25.88 92.6067 25.4933 93.14 25.2C93.6867 24.9067 94.3133 24.76 95.02 24.76C95.94 24.76 96.7133 24.9467 97.34 25.32C97.98 25.68 98.4667 26.1667 98.8 26.78C99.1467 27.3933 99.3267 28.0667 99.34 28.8L97 29.12C96.9867 28.3867 96.8 27.8 96.44 27.36C96.0933 26.9067 95.6267 26.68 95.04 26.68C94.6667 26.68 94.3667 26.78 94.14 26.98C93.9133 27.1667 93.8 27.3867 93.8 27.64C93.8 28.0133 93.9867 28.3133 94.36 28.54C94.7333 28.7667 95.22 28.88 95.82 28.88C96.9533 28.88 97.9 28.7467 98.66 28.48C99.42 28.2 99.9867 27.8067 100.36 27.3C100.747 26.78 100.94 26.1667 100.94 25.46C100.94 24.86 100.753 24.3333 100.38 23.88C100.02 23.4267 99.5267 23.0733 98.9 22.82C98.2733 22.5667 97.5667 22.44 96.78 22.44C96.0067 22.44 95.3 22.54 94.66 22.74C94.02 22.9267 93.4133 23.2 92.84 23.56C92.28 23.9067 91.7267 24.3333 91.18 24.84C90.6467 25.3333 90.1133 25.8867 89.58 26.5L87.76 24.62C88.12 24.3267 88.5267 24 88.98 23.64C89.4333 23.2667 89.8933 22.88 90.36 22.48C90.84 22.08 91.2867 21.7067 91.7 21.36C92.1267 21 92.4867 20.7 92.78 20.46C93.06 20.2333 93.3867 19.9667 93.76 19.66C94.1333 19.3533 94.52 19.04 94.92 18.72C95.32 18.3867 95.7 18.0733 96.06 17.78C96.42 17.4733 96.72 17.2133 96.96 17C96.76 17 96.5 17.0067 96.18 17.02C95.86 17.0333 95.5067 17.0467 95.12 17.06C94.7467 17.0733 94.3667 17.0867 93.98 17.1C93.6067 17.1133 93.2533 17.1333 92.92 17.16C92.6 17.1733 92.3333 17.1867 92.12 17.2C91.8533 17.2133 91.5733 17.2333 91.28 17.26C90.9867 17.2867 90.72 17.32 90.48 17.36L90.4 14.76Z" fill="white"/>
</g>
<rect x="6" y="5" width="115" height="3" rx="1.5" fill="white" fill-opacity="0.52"/>
<defs>
<filter id="filter0_d_231_5669" x="0" y="0" width="128" height="48" filterUnits="userSpaceOnUse" color-interpolation-filters="sRGB">
<feFlood flood-opacity="0" result="BackgroundImageFix"/>
<feColorMatrix in="SourceAlpha" type="matrix" values="0 0 0 0 0 0 0 0 0 0 0 0 0 0 0 0 0 0 127 0" result="hardAlpha"/>
<feOffset dy="2"/>
<feGaussianBlur stdDeviation="2"/>
<feComposite in2="hardAlpha" operator="out"/>
<feColorMatrix type="matrix" values="0 0 0 0 0 0 0 0 0 0 0 0 0 0 0 0 0 0 0.25 0"/>
<feBlend mode="normal" in2="BackgroundImageFix" result="effect1_dropShadow_231_5669"/>
<feBlend mode="normal" in="SourceGraphic" in2="effect1_dropShadow_231_5669" result="shape"/>
</filter>
<filter id="filter1_d_231_5669" x="23.7" y="12.7399" width="80.0599" height="19.28" filterUnits="userSpaceOnUse" color-interpolation-filters="sRGB">
<feFlood flood-opacity="0" result="BackgroundImageFix"/>
<feColorMatrix in="SourceAlpha" type="matrix" values="0 0 0 0 0 0 0 0 0 0 0 0 0 0 0 0 0 0 127 0" result="hardAlpha"/>
<feOffset/>
<feGaussianBlur stdDeviation="0.1"/>
<feComposite in2="hardAlpha" operator="out"/>
<feColorMatrix type="matrix" values="0 0 0 0 0.336538 0 0 0 0 0.336538 0 0 0 0 0.336538 0 0 0 1 0"/>
<feBlend mode="normal" in2="BackgroundImageFix" result="effect1_dropShadow_231_5669"/>
<feBlend mode="normal" in="SourceGraphic" in2="effect1_dropShadow_231_5669" result="shape"/>
</filter>
</defs>
</svg>
