<svg width="164" height="74" viewBox="0 0 164 74" fill="none" xmlns="http://www.w3.org/2000/svg">
<g filter="url(#filter0_d_239_403)">
<rect x="2" y="1" width="160" height="70" rx="5" fill="#FA6767"/>
</g>
<path d="M37.428 21.496L38.42 22.664C37.7053 22.792 36.9107 22.904 36.036 23C35.1613 23.0853 34.26 23.1493 33.332 23.192C32.4147 23.2347 31.5347 23.2667 30.692 23.288C30.6707 23.1173 30.6227 22.9147 30.548 22.68C30.4733 22.4453 30.3987 22.2533 30.324 22.104C30.9427 22.0827 31.5773 22.056 32.228 22.024C32.8893 21.992 33.5347 21.9493 34.164 21.896C34.7933 21.8427 35.3853 21.784 35.94 21.72C36.5053 21.656 37.0013 21.5813 37.428 21.496ZM29.524 23.832H39.22V25.176H29.524V23.832ZM30.068 25.896H38.692V27.224H30.068V25.896ZM33.316 22.456H35.156V26.472H33.316V22.456ZM28.452 21.4L30.212 22.056C29.8387 22.5573 29.4013 23.048 28.9 23.528C28.3987 24.008 27.8707 24.456 27.316 24.872C26.772 25.2773 26.2387 25.6293 25.716 25.928C25.62 25.8107 25.4867 25.6667 25.316 25.496C25.1453 25.3147 24.9747 25.1387 24.804 24.968C24.6333 24.7867 24.4733 24.6427 24.324 24.536C24.8467 24.2907 25.364 24.008 25.876 23.688C26.388 23.3573 26.868 22.9947 27.316 22.6C27.764 22.2053 28.1427 21.8053 28.452 21.4ZM28.74 30.568V31.208H35.652V30.568H28.74ZM28.74 32.232V32.904H35.652V32.232H28.74ZM28.74 28.904V29.544H35.652V28.904H28.74ZM26.884 27.816H37.604V33.992H26.884V27.816ZM32.996 34.744L34.644 33.848C35.1987 34.0187 35.7693 34.2107 36.356 34.424C36.9427 34.6267 37.5027 34.824 38.036 35.016C38.5693 35.2187 39.028 35.4053 39.412 35.576L37.092 36.44C36.804 36.28 36.4413 36.0987 36.004 35.896C35.5667 35.704 35.0867 35.5067 34.564 35.304C34.052 35.112 33.5293 34.9253 32.996 34.744ZM29.476 33.8L31.188 34.568C30.7507 34.824 30.244 35.0747 29.668 35.32C29.092 35.5653 28.5 35.7893 27.892 35.992C27.2947 36.1947 26.7187 36.36 26.164 36.488C26.068 36.36 25.9347 36.2053 25.764 36.024C25.5933 35.8533 25.4227 35.6827 25.252 35.512C25.0813 35.352 24.9213 35.2187 24.772 35.112C25.348 35.016 25.924 34.904 26.5 34.776C27.0867 34.6373 27.636 34.488 28.148 34.328C28.66 34.1573 29.1027 33.9813 29.476 33.8ZM26.996 24.28L28.18 23.08L28.804 23.256V27.352H26.996V24.28ZM46.612 23.32L55.892 22.792L56.036 24.168L46.756 24.744L46.612 23.32ZM48.356 21.4H50.148C50.2227 22.008 50.3933 22.568 50.66 23.08C50.9267 23.592 51.252 24.0347 51.636 24.408C52.02 24.7707 52.4307 25.0533 52.868 25.256C53.316 25.4587 53.7587 25.56 54.196 25.56C54.42 25.56 54.5693 25.4853 54.644 25.336C54.7187 25.176 54.7773 24.888 54.82 24.472C55.0013 24.6107 55.2253 24.744 55.492 24.872C55.7587 24.9893 56.004 25.08 56.228 25.144C56.1533 25.72 56.0307 26.1627 55.86 26.472C55.7 26.7707 55.476 26.9733 55.188 27.08C54.9107 27.1867 54.5587 27.24 54.132 27.24C53.5773 27.24 53.0333 27.1493 52.5 26.968C51.9667 26.7867 51.4707 26.5307 51.012 26.2C50.5533 25.8587 50.1373 25.4533 49.764 24.984C49.3907 24.504 49.0813 23.9653 48.836 23.368C48.6013 22.7707 48.4413 22.1147 48.356 21.4ZM51.172 22.28L52.036 21.352C52.3347 21.4053 52.6547 21.4853 52.996 21.592C53.348 21.688 53.684 21.7947 54.004 21.912C54.324 22.0187 54.5907 22.1307 54.804 22.248L53.892 23.272C53.7 23.1653 53.444 23.0533 53.124 22.936C52.8147 22.808 52.4893 22.6853 52.148 22.568C51.8067 22.4507 51.4813 22.3547 51.172 22.28ZM45.764 21.272L47.492 21.944C47.0867 22.456 46.6067 22.9573 46.052 23.448C45.4973 23.9387 44.9213 24.3973 44.324 24.824C43.7267 25.24 43.14 25.5973 42.564 25.896C42.468 25.768 42.3347 25.6187 42.164 25.448C42.004 25.2773 41.8387 25.1067 41.668 24.936C41.4973 24.7547 41.3427 24.616 41.204 24.52C41.7907 24.264 42.3667 23.9707 42.932 23.64C43.4973 23.2987 44.0253 22.9307 44.516 22.536C45.0067 22.1307 45.4227 21.7093 45.764 21.272ZM44.292 23.848L45.492 22.632L46.132 22.808V26.808H44.292V23.848ZM45.508 30.12V30.792H52.452V30.12H45.508ZM45.508 31.88V32.584H52.452V31.88H45.508ZM45.508 28.344V29.032H52.452V28.344H45.508ZM43.652 27.208H54.404V33.72H43.652V27.208ZM49.796 34.568L51.396 33.656C51.972 33.8587 52.5533 34.0773 53.14 34.312C53.7373 34.536 54.3027 34.7653 54.836 35C55.38 35.224 55.8387 35.4267 56.212 35.608L53.972 36.472C53.6733 36.3013 53.3 36.104 52.852 35.88C52.404 35.656 51.9187 35.4267 51.396 35.192C50.884 34.968 50.3507 34.76 49.796 34.568ZM46.26 33.592L48.004 34.392C47.5773 34.6693 47.076 34.9413 46.5 35.208C45.924 35.4747 45.332 35.7147 44.724 35.928C44.116 36.152 43.54 36.3387 42.996 36.488C42.8787 36.36 42.7347 36.2053 42.564 36.024C42.404 35.8533 42.2333 35.6773 42.052 35.496C41.8707 35.3253 41.7107 35.1867 41.572 35.08C42.1373 34.9733 42.708 34.8453 43.284 34.696C43.8707 34.5467 44.42 34.376 44.932 34.184C45.4547 33.992 45.8973 33.7947 46.26 33.592ZM72.948 24.92C72.8307 25.048 72.724 25.1653 72.628 25.272C72.5427 25.3787 72.468 25.4853 72.404 25.592C72.084 26.104 71.7053 26.6587 71.268 27.256C70.8307 27.8533 70.3453 28.456 69.812 29.064C69.2787 29.672 68.7133 30.2587 68.116 30.824C67.5293 31.3893 66.9213 31.9013 66.292 32.36L64.708 30.872C65.2413 30.5093 65.7427 30.1093 66.212 29.672C66.692 29.224 67.1347 28.7707 67.54 28.312C67.956 27.8533 68.324 27.4053 68.644 26.968C68.964 26.5307 69.2307 26.1307 69.444 25.768C69.2307 25.768 68.948 25.768 68.596 25.768C68.244 25.768 67.8333 25.768 67.364 25.768C66.9053 25.768 66.42 25.768 65.908 25.768C65.396 25.768 64.884 25.768 64.372 25.768C63.8707 25.768 63.3907 25.768 62.932 25.768C62.484 25.768 62.0893 25.768 61.748 25.768C61.4173 25.768 61.1613 25.768 60.98 25.768C60.7667 25.768 60.5373 25.7733 60.292 25.784C60.0573 25.7947 59.8333 25.8107 59.62 25.832C59.4067 25.8533 59.2467 25.8693 59.14 25.88V23.64C59.2787 23.6507 59.4547 23.672 59.668 23.704C59.892 23.736 60.1213 23.7573 60.356 23.768C60.5907 23.7787 60.7987 23.784 60.98 23.784C61.1187 23.784 61.3533 23.784 61.684 23.784C62.0253 23.784 62.4253 23.784 62.884 23.784C63.3427 23.784 63.8333 23.784 64.356 23.784C64.8893 23.784 65.4227 23.784 65.956 23.784C66.5 23.784 67.0227 23.784 67.524 23.784C68.0253 23.784 68.4733 23.784 68.868 23.784C69.2733 23.784 69.604 23.784 69.86 23.784C70.4893 23.784 70.9853 23.7253 71.348 23.608L72.948 24.92ZM64.5 32.584C64.2653 32.3493 63.9933 32.0933 63.684 31.816C63.3853 31.528 63.0707 31.24 62.74 30.952C62.42 30.664 62.1053 30.3973 61.796 30.152C61.4973 29.896 61.2253 29.6827 60.98 29.512L62.676 28.152C62.8893 28.312 63.14 28.5093 63.428 28.744C63.7267 28.9787 64.0413 29.2347 64.372 29.512C64.7027 29.7893 65.0387 30.0773 65.38 30.376C65.7213 30.6747 66.0467 30.968 66.356 31.256C66.708 31.5973 67.0707 31.9653 67.444 32.36C67.828 32.7547 68.1907 33.1387 68.532 33.512C68.884 33.8853 69.1827 34.232 69.428 34.552L67.556 36.04C67.332 35.7413 67.044 35.3947 66.692 35C66.3507 34.5947 65.988 34.1787 65.604 33.752C65.22 33.3253 64.852 32.936 64.5 32.584ZM78.356 22.84C78.6333 23.032 78.9587 23.2667 79.332 23.544C79.7053 23.8213 80.0893 24.1253 80.484 24.456C80.8893 24.776 81.268 25.0907 81.62 25.4C81.972 25.7093 82.26 25.9867 82.484 26.232L80.852 27.896C80.6493 27.672 80.3827 27.4053 80.052 27.096C79.7213 26.7867 79.364 26.4667 78.98 26.136C78.596 25.8053 78.2173 25.4907 77.844 25.192C77.4707 24.8933 77.14 24.6427 76.852 24.44L78.356 22.84ZM76.356 33.496C77.188 33.3787 77.972 33.2133 78.708 33C79.444 32.7867 80.1267 32.5413 80.756 32.264C81.3853 31.9867 81.9613 31.6987 82.484 31.4C83.3907 30.856 84.2227 30.2373 84.98 29.544C85.7373 28.8507 86.3987 28.1307 86.964 27.384C87.5293 26.6267 87.9773 25.8907 88.308 25.176L89.556 27.432C89.1507 28.1467 88.6493 28.8613 88.052 29.576C87.4653 30.2907 86.7987 30.9733 86.052 31.624C85.3053 32.264 84.5 32.84 83.636 33.352C83.092 33.6827 82.5053 33.9973 81.876 34.296C81.2467 34.584 80.58 34.84 79.876 35.064C79.1827 35.2987 78.4573 35.48 77.7 35.608L76.356 33.496ZM96.244 22.328C96.5 22.4773 96.7933 22.6533 97.124 22.856C97.4547 23.0587 97.7907 23.2667 98.132 23.48C98.484 23.6933 98.8093 23.9013 99.108 24.104C99.4173 24.296 99.6787 24.4667 99.892 24.616L98.692 26.392C98.4787 26.232 98.2173 26.0507 97.908 25.848C97.5987 25.6453 97.2787 25.4373 96.948 25.224C96.6173 25.0107 96.2867 24.808 95.956 24.616C95.636 24.4133 95.3427 24.2373 95.076 24.088L96.244 22.328ZM93.268 33.688C93.876 33.5813 94.484 33.4533 95.092 33.304C95.7107 33.144 96.324 32.9467 96.932 32.712C97.5507 32.4773 98.148 32.2053 98.724 31.896C99.6307 31.384 100.473 30.808 101.252 30.168C102.041 29.528 102.745 28.8453 103.364 28.12C103.993 27.3947 104.521 26.6533 104.948 25.896L106.18 28.072C105.433 29.1813 104.511 30.2267 103.412 31.208C102.324 32.1893 101.124 33.0587 99.812 33.816C99.268 34.1253 98.6707 34.4133 98.02 34.68C97.38 34.9467 96.7453 35.176 96.116 35.368C95.4973 35.5707 94.948 35.7147 94.468 35.8L93.268 33.688ZM93.78 25.976C94.0467 26.1253 94.3453 26.3013 94.676 26.504C95.0173 26.696 95.3587 26.8987 95.7 27.112C96.0413 27.3253 96.3613 27.528 96.66 27.72C96.9693 27.912 97.2253 28.0827 97.428 28.232L96.26 30.024C96.0253 29.864 95.7587 29.688 95.46 29.496C95.1613 29.2933 94.8413 29.0853 94.5 28.872C94.1693 28.648 93.8387 28.44 93.508 28.248C93.188 28.056 92.8893 27.8907 92.612 27.752L93.78 25.976ZM111.508 25.96C111.647 25.9707 111.833 25.9867 112.068 26.008C112.303 26.0187 112.548 26.0293 112.804 26.04C113.06 26.04 113.289 26.04 113.492 26.04C113.748 26.04 114.079 26.04 114.484 26.04C114.889 26.04 115.327 26.04 115.796 26.04C116.276 26.04 116.751 26.04 117.22 26.04C117.689 26.04 118.127 26.04 118.532 26.04C118.937 26.04 119.273 26.04 119.54 26.04C119.732 26.04 119.951 26.04 120.196 26.04C120.452 26.0293 120.644 26.0187 120.772 26.008C120.761 26.1147 120.756 26.28 120.756 26.504C120.756 26.7173 120.756 26.9093 120.756 27.08C120.756 27.1973 120.756 27.4427 120.756 27.816C120.756 28.1787 120.756 28.6267 120.756 29.16C120.756 29.6933 120.756 30.2587 120.756 30.856C120.756 31.4533 120.756 32.04 120.756 32.616C120.756 33.1813 120.756 33.688 120.756 34.136C120.756 34.5733 120.756 34.8987 120.756 35.112C120.756 35.24 120.756 35.416 120.756 35.64C120.767 35.8747 120.772 36.0613 120.772 36.2H118.756C118.767 36.0613 118.772 35.8693 118.772 35.624C118.772 35.3787 118.772 35.176 118.772 35.016C118.772 34.7387 118.772 34.3867 118.772 33.96C118.772 33.5227 118.772 33.0533 118.772 32.552C118.772 32.04 118.772 31.528 118.772 31.016C118.772 30.4933 118.772 30.008 118.772 29.56C118.772 29.112 118.772 28.7387 118.772 28.44C118.772 28.1307 118.772 27.928 118.772 27.832C118.676 27.832 118.505 27.832 118.26 27.832C118.015 27.832 117.732 27.832 117.412 27.832C117.092 27.832 116.745 27.832 116.372 27.832C116.009 27.832 115.647 27.832 115.284 27.832C114.932 27.832 114.596 27.832 114.276 27.832C113.967 27.832 113.705 27.832 113.492 27.832C113.289 27.832 113.06 27.8373 112.804 27.848C112.548 27.848 112.297 27.8533 112.052 27.864C111.817 27.8747 111.636 27.8853 111.508 27.896V25.96ZM111.924 29.72C112.137 29.7307 112.404 29.7413 112.724 29.752C113.055 29.7627 113.369 29.768 113.668 29.768C113.796 29.768 114.02 29.768 114.34 29.768C114.671 29.768 115.049 29.768 115.476 29.768C115.913 29.768 116.361 29.768 116.82 29.768C117.279 29.768 117.711 29.768 118.116 29.768C118.532 29.768 118.884 29.768 119.172 29.768C119.46 29.768 119.636 29.768 119.7 29.768V31.576C119.625 31.576 119.444 31.576 119.156 31.576C118.879 31.576 118.532 31.576 118.116 31.576C117.711 31.576 117.279 31.576 116.82 31.576C116.361 31.576 115.913 31.576 115.476 31.576C115.049 31.576 114.676 31.576 114.356 31.576C114.036 31.576 113.807 31.576 113.668 31.576C113.369 31.576 113.049 31.5813 112.708 31.592C112.377 31.592 112.116 31.5973 111.924 31.608V29.72ZM111.332 33.64C111.471 33.6507 111.663 33.6667 111.908 33.688C112.153 33.6987 112.425 33.704 112.724 33.704C112.884 33.704 113.151 33.704 113.524 33.704C113.897 33.704 114.324 33.704 114.804 33.704C115.295 33.704 115.801 33.704 116.324 33.704C116.847 33.704 117.343 33.704 117.812 33.704C118.292 33.704 118.703 33.704 119.044 33.704C119.385 33.704 119.609 33.704 119.716 33.704V35.56C119.577 35.56 119.332 35.56 118.98 35.56C118.628 35.56 118.212 35.56 117.732 35.56C117.263 35.56 116.772 35.56 116.26 35.56C115.748 35.56 115.252 35.56 114.772 35.56C114.292 35.56 113.865 35.56 113.492 35.56C113.129 35.56 112.868 35.56 112.708 35.56C112.484 35.56 112.233 35.5653 111.956 35.576C111.679 35.5867 111.471 35.5973 111.332 35.608V33.64ZM128.756 22.84C129.033 23.032 129.359 23.2667 129.732 23.544C130.105 23.8213 130.489 24.1253 130.884 24.456C131.289 24.776 131.668 25.0907 132.02 25.4C132.372 25.7093 132.66 25.9867 132.884 26.232L131.252 27.896C131.049 27.672 130.783 27.4053 130.452 27.096C130.121 26.7867 129.764 26.4667 129.38 26.136C128.996 25.8053 128.617 25.4907 128.244 25.192C127.871 24.8933 127.54 24.6427 127.252 24.44L128.756 22.84ZM126.756 33.496C127.588 33.3787 128.372 33.2133 129.108 33C129.844 32.7867 130.527 32.5413 131.156 32.264C131.785 31.9867 132.361 31.6987 132.884 31.4C133.791 30.856 134.623 30.2373 135.38 29.544C136.137 28.8507 136.799 28.1307 137.364 27.384C137.929 26.6267 138.377 25.8907 138.708 25.176L139.956 27.432C139.551 28.1467 139.049 28.8613 138.452 29.576C137.865 30.2907 137.199 30.9733 136.452 31.624C135.705 32.264 134.9 32.84 134.036 33.352C133.492 33.6827 132.905 33.9973 132.276 34.296C131.647 34.584 130.98 34.84 130.276 35.064C129.583 35.2987 128.857 35.48 128.1 35.608L126.756 33.496ZM64.7362 46.168C64.6509 46.2747 64.5442 46.4133 64.4163 46.584C64.2882 46.744 64.1869 46.8827 64.1123 47C63.8669 47.416 63.5416 47.896 63.1362 48.44C62.7309 48.9733 62.2829 49.5067 61.7922 50.04C61.3016 50.5627 60.7949 51.0107 60.2723 51.384L58.6082 50.056C58.9282 49.864 59.2429 49.64 59.5522 49.384C59.8616 49.128 60.1442 48.8613 60.4002 48.584C60.6669 48.296 60.8963 48.024 61.0883 47.768C61.2909 47.512 61.4456 47.2827 61.5522 47.08C61.4136 47.08 61.1789 47.08 60.8482 47.08C60.5176 47.08 60.1229 47.08 59.6642 47.08C59.2056 47.08 58.7096 47.08 58.1762 47.08C57.6536 47.08 57.1309 47.08 56.6082 47.08C56.0856 47.08 55.5896 47.08 55.1202 47.08C54.6616 47.08 54.2616 47.08 53.9202 47.08C53.5896 47.08 53.3549 47.08 53.2162 47.08C52.8856 47.08 52.5709 47.0907 52.2722 47.112C51.9736 47.1333 51.6376 47.16 51.2642 47.192V44.968C51.5736 45.0107 51.8936 45.048 52.2242 45.08C52.5549 45.112 52.8856 45.128 53.2162 45.128C53.3549 45.128 53.6002 45.128 53.9522 45.128C54.3042 45.128 54.7202 45.128 55.2002 45.128C55.6909 45.128 56.2082 45.128 56.7522 45.128C57.3069 45.128 57.8562 45.128 58.4002 45.128C58.9549 45.128 59.4669 45.128 59.9362 45.128C60.4162 45.128 60.8216 45.128 61.1522 45.128C61.4936 45.128 61.7229 45.128 61.8403 45.128C61.9896 45.128 62.1709 45.1227 62.3842 45.112C62.5976 45.1013 62.8056 45.0853 63.0083 45.064C63.2216 45.0427 63.3762 45.016 63.4722 44.984L64.7362 46.168ZM58.2083 48.328C58.2083 49.1173 58.1922 49.88 58.1602 50.616C58.1282 51.352 58.0376 52.0613 57.8882 52.744C57.7496 53.416 57.5202 54.056 57.2002 54.664C56.8909 55.272 56.4589 55.848 55.9042 56.392C55.3496 56.936 54.6402 57.4373 53.7762 57.896L51.9042 56.376C52.1602 56.2907 52.4322 56.1787 52.7202 56.04C53.0082 55.8907 53.2962 55.7093 53.5842 55.496C54.0962 55.144 54.5069 54.7707 54.8162 54.376C55.1362 53.9813 55.3816 53.5547 55.5522 53.096C55.7229 52.6267 55.8402 52.12 55.9042 51.576C55.9682 51.0213 56.0002 50.4187 56.0002 49.768C56.0002 49.5227 55.9949 49.288 55.9842 49.064C55.9736 48.8293 55.9416 48.584 55.8882 48.328H58.2083ZM78.7597 45.496C78.7597 45.752 78.8504 45.9707 79.0317 46.152C79.2131 46.3227 79.4317 46.408 79.6877 46.408C79.9437 46.408 80.1624 46.3227 80.3437 46.152C80.5251 45.9707 80.6157 45.752 80.6157 45.496C80.6157 45.24 80.5251 45.0213 80.3437 44.84C80.1624 44.6587 79.9437 44.568 79.6877 44.568C79.4317 44.568 79.2131 44.6587 79.0317 44.84C78.8504 45.0213 78.7597 45.24 78.7597 45.496ZM77.7677 45.496C77.7677 45.144 77.8531 44.824 78.0237 44.536C78.2051 44.2373 78.4397 44.0027 78.7277 43.832C79.0157 43.6613 79.3357 43.576 79.6877 43.576C80.0397 43.576 80.3597 43.6613 80.6477 43.832C80.9357 44.0027 81.1651 44.2373 81.3357 44.536C81.5171 44.824 81.6077 45.144 81.6077 45.496C81.6077 45.8373 81.5171 46.152 81.3357 46.44C81.1651 46.728 80.9357 46.9627 80.6477 47.144C80.3597 47.3147 80.0397 47.4 79.6877 47.4C79.3357 47.4 79.0157 47.3147 78.7277 47.144C78.4397 46.9627 78.2051 46.728 78.0237 46.44C77.8531 46.152 77.7677 45.8373 77.7677 45.496ZM69.0157 52.024C69.1971 51.576 69.3677 51.1067 69.5277 50.616C69.6984 50.1147 69.8477 49.6027 69.9757 49.08C70.1037 48.5467 70.2157 48.0187 70.3117 47.496C70.4184 46.9733 70.4931 46.456 70.5357 45.944L72.8717 46.424C72.8291 46.5733 72.7811 46.7493 72.7277 46.952C72.6744 47.1547 72.6264 47.352 72.5837 47.544C72.5411 47.736 72.5091 47.896 72.4877 48.024C72.4344 48.3013 72.3597 48.6373 72.2637 49.032C72.1677 49.4267 72.0557 49.848 71.9277 50.296C71.7997 50.7333 71.6664 51.176 71.5277 51.624C71.3997 52.0613 71.2664 52.4667 71.1277 52.84C70.9357 53.352 70.7064 53.8853 70.4397 54.44C70.1837 54.9947 69.9064 55.528 69.6077 56.04C69.3197 56.552 69.0371 57.0107 68.7597 57.416L66.5197 56.472C67.0317 55.8107 67.5064 55.08 67.9437 54.28C68.3917 53.48 68.7491 52.728 69.0157 52.024ZM76.9197 51.688C76.7597 51.2613 76.5837 50.808 76.3917 50.328C76.1997 49.848 75.9971 49.368 75.7837 48.888C75.5704 48.408 75.3624 47.9547 75.1597 47.528C74.9571 47.1013 74.7704 46.7333 74.5997 46.424L76.7277 45.736C76.8877 46.0453 77.0744 46.4187 77.2877 46.856C77.5011 47.2933 77.7144 47.7573 77.9277 48.248C78.1411 48.728 78.3491 49.208 78.5517 49.688C78.7544 50.168 78.9357 50.6 79.0957 50.984C79.2344 51.336 79.3837 51.752 79.5437 52.232C79.7144 52.712 79.8851 53.2133 80.0557 53.736C80.2371 54.248 80.4024 54.7493 80.5517 55.24C80.7117 55.7307 80.8451 56.1733 80.9517 56.568L78.5837 57.336C78.4451 56.7067 78.2851 56.0667 78.1037 55.416C77.9224 54.7653 77.7304 54.1253 77.5277 53.496C77.3357 52.8667 77.1331 52.264 76.9197 51.688ZM84.2157 49.592C84.4077 49.6027 84.6531 49.6187 84.9517 49.64C85.2504 49.6507 85.5597 49.6613 85.8797 49.672C86.2104 49.6827 86.5144 49.688 86.7917 49.688C87.0584 49.688 87.3891 49.688 87.7837 49.688C88.1784 49.688 88.6051 49.688 89.0637 49.688C89.5331 49.688 90.0131 49.688 90.5037 49.688C91.0051 49.688 91.5011 49.688 91.9917 49.688C92.4824 49.688 92.9464 49.688 93.3837 49.688C93.8211 49.688 94.2104 49.688 94.5517 49.688C94.9037 49.688 95.1811 49.688 95.3837 49.688C95.7571 49.688 96.1091 49.6773 96.4397 49.656C96.7704 49.624 97.0424 49.6027 97.2557 49.592V52.104C97.0744 52.0933 96.8024 52.0773 96.4397 52.056C96.0771 52.0347 95.7251 52.024 95.3837 52.024C95.1811 52.024 94.9037 52.024 94.5517 52.024C94.1997 52.024 93.8051 52.024 93.3677 52.024C92.9304 52.024 92.4664 52.024 91.9757 52.024C91.4957 52.024 91.0051 52.024 90.5037 52.024C90.0024 52.024 89.5171 52.024 89.0477 52.024C88.5891 52.024 88.1624 52.024 87.7677 52.024C87.3837 52.024 87.0584 52.024 86.7917 52.024C86.3331 52.024 85.8637 52.0347 85.3837 52.056C84.9037 52.0667 84.5144 52.0827 84.2157 52.104V49.592ZM104.568 55.464C104.568 55.2613 104.568 54.9307 104.568 54.472C104.568 54.0027 104.568 53.464 104.568 52.856C104.568 52.2373 104.568 51.592 104.568 50.92C104.568 50.248 104.568 49.6027 104.568 48.984C104.568 48.3547 104.568 47.8 104.568 47.32C104.568 46.84 104.568 46.488 104.568 46.264C104.568 45.9867 104.552 45.6667 104.52 45.304C104.498 44.9413 104.461 44.6213 104.408 44.344H106.904C106.872 44.6213 106.84 44.9307 106.808 45.272C106.776 45.6027 106.76 45.9333 106.76 46.264C106.76 46.5627 106.76 46.968 106.76 47.48C106.76 47.992 106.76 48.5627 106.76 49.192C106.76 49.8107 106.76 50.4453 106.76 51.096C106.76 51.736 106.76 52.3547 106.76 52.952C106.76 53.5493 106.76 54.072 106.76 54.52C106.76 54.9573 106.76 55.272 106.76 55.464C106.76 55.6133 106.765 55.8267 106.776 56.104C106.786 56.3707 106.808 56.648 106.84 56.936C106.872 57.224 106.893 57.48 106.904 57.704H104.408C104.45 57.384 104.488 57.0107 104.52 56.584C104.552 56.1573 104.568 55.784 104.568 55.464ZM106.28 48.488C106.813 48.6267 107.41 48.808 108.072 49.032C108.733 49.2453 109.4 49.4747 110.072 49.72C110.744 49.9653 111.373 50.2107 111.96 50.456C112.557 50.6907 113.053 50.9093 113.448 51.112L112.536 53.32C112.088 53.0853 111.592 52.8507 111.048 52.616C110.504 52.3707 109.949 52.136 109.384 51.912C108.829 51.688 108.28 51.48 107.736 51.288C107.202 51.096 106.717 50.9253 106.28 50.776V48.488Z" fill="white"/>
<rect x="6" y="6" width="150" height="5" rx="2.5" fill="white" fill-opacity="0.5"/>
<defs>
<filter id="filter0_d_239_403" x="0" y="0" width="164" height="74" filterUnits="userSpaceOnUse" color-interpolation-filters="sRGB">
<feFlood flood-opacity="0" result="BackgroundImageFix"/>
<feColorMatrix in="SourceAlpha" type="matrix" values="0 0 0 0 0 0 0 0 0 0 0 0 0 0 0 0 0 0 127 0" result="hardAlpha"/>
<feOffset dy="1"/>
<feGaussianBlur stdDeviation="1"/>
<feComposite in2="hardAlpha" operator="out"/>
<feColorMatrix type="matrix" values="0 0 0 0 0 0 0 0 0 0 0 0 0 0 0 0 0 0 0.2 0"/>
<feBlend mode="normal" in2="BackgroundImageFix" result="effect1_dropShadow_239_403"/>
<feBlend mode="normal" in="SourceGraphic" in2="effect1_dropShadow_239_403" result="shape"/>
</filter>
</defs>
</svg>
