<svg width="74" height="74" viewBox="0 0 74 74" fill="none" xmlns="http://www.w3.org/2000/svg">
<g filter="url(#filter0_d_231_6187)">
<g clip-path="url(#clip0_231_6187)">
<rect x="2" y="1" width="70" height="70" rx="5" fill="white"/>
<path d="M2.34741 66.455V71.0276H73.9815C74.0587 68.7413 73.9351 63.9858 72.8223 63.2542C71.4314 62.3397 70.2722 62.1111 60.9992 59.8248C51.7262 57.5385 33.1802 57.9957 20.6616 59.1389C10.6468 60.0534 4.27929 64.3974 2.34741 66.455Z" fill="#B3CF89"/>
<path d="M53.6805 71.0275C55.1916 69.8752 58.875 62.7048 60.5277 59.2637L64.0694 59.9839C66.9027 60.5601 70.4444 61.8245 71.861 62.3847L71.4563 71.0275H53.6805Z" fill="#A5BE7A"/>
<rect x="23.5637" y="44.0635" width="27.0636" height="15.319" fill="#7C694B"/>
<rect x="21.5214" y="9" width="32.8508" height="2.55317" fill="#A48872"/>
<rect x="23.5637" y="11.7233" width="26.2126" height="5.27656" fill="#7C694B"/>
<rect x="23.5637" y="19.8936" width="26.2126" height="5.27656" fill="#7C694B"/>
<rect x="23.5637" y="27.7232" width="26.2126" height="5.27656" fill="#7C694B"/>
<rect x="23.5637" y="35.8934" width="26.2126" height="5.27656" fill="#7C694B"/>
<rect x="21.5214" y="16.9999" width="32.8508" height="2.55317" fill="#A48872"/>
<rect x="21.5214" y="25.17" width="32.8508" height="2.55317" fill="#A48872"/>
<rect x="21.5214" y="32.9998" width="32.8508" height="2.55317" fill="#A48872"/>
<rect x="21.5214" y="41.17" width="32.8508" height="2.55317" fill="#A48872"/>
<rect x="21.5214" y="11.5532" width="32.8508" height="0.340423" fill="#6A5947"/>
<rect x="21.5214" y="19.5531" width="32.8508" height="0.340423" fill="#6A5947"/>
<rect x="21.5214" y="27.7232" width="32.8508" height="0.340423" fill="#6A5947"/>
<rect x="21.5214" y="35.5529" width="32.8508" height="0.340423" fill="#6A5947"/>
<rect x="21.5214" y="43.7231" width="32.8508" height="0.340423" fill="#6A5947"/>
<rect x="25.9468" y="13.0851" width="6.63825" height="3.91487" fill="#9E773A"/>
<rect x="26.2872" y="13.4255" width="5.9574" height="3.57444" fill="#DEF9FF"/>
<rect x="27.9893" y="13.4255" width="0.170212" height="3.57444" fill="#9CAFB5"/>
<rect x="25.9468" y="21.2552" width="6.63825" height="3.91487" fill="#9E773A"/>
<rect x="26.2872" y="21.5956" width="5.9574" height="3.57444" fill="#DEF9FF"/>
<rect x="27.9893" y="21.5956" width="0.170212" height="3.57444" fill="#9CAFB5"/>
<rect x="25.9468" y="29.0849" width="6.63825" height="3.91487" fill="#9E773A"/>
<rect x="26.2872" y="29.4254" width="5.9574" height="3.57444" fill="#DEF9FF"/>
<rect x="27.9893" y="29.4254" width="0.170212" height="3.57444" fill="#9CAFB5"/>
<rect x="25.9468" y="37.2551" width="6.63825" height="3.91487" fill="#9E773A"/>
<rect x="26.2872" y="37.5955" width="5.9574" height="3.57444" fill="#DEF9FF"/>
<rect x="27.9893" y="37.5955" width="0.170212" height="3.57444" fill="#9CAFB5"/>
<rect x="35.9893" y="13.0851" width="6.63825" height="3.91487" fill="#9E773A"/>
<rect x="36.3297" y="13.4255" width="5.9574" height="3.57444" fill="#DEF9FF"/>
<rect x="38.0317" y="13.4255" width="0.170212" height="3.57444" fill="#9CAFB5"/>
<rect x="35.9893" y="21.2552" width="6.63825" height="3.91487" fill="#9E773A"/>
<rect x="36.3297" y="21.5956" width="5.9574" height="3.57444" fill="#DEF9FF"/>
<rect x="38.0317" y="21.5956" width="0.170212" height="3.57444" fill="#9CAFB5"/>
<rect x="35.9893" y="29.0849" width="6.63825" height="3.91487" fill="#9E773A"/>
<rect x="36.3297" y="29.4254" width="5.9574" height="3.57444" fill="#DEF9FF"/>
<rect x="38.0317" y="29.4254" width="0.170212" height="3.57444" fill="#9CAFB5"/>
<rect x="35.9893" y="37.2551" width="6.63825" height="3.91487" fill="#9E773A"/>
<rect x="36.3297" y="37.5955" width="5.9574" height="3.57444" fill="#DEF9FF"/>
<rect x="38.0317" y="37.5955" width="0.170212" height="3.57444" fill="#9CAFB5"/>
<rect x="45.8616" y="13.0851" width="3.40423" height="3.91487" fill="#9E773A"/>
<rect x="46.202" y="13.4255" width="2.72338" height="3.57444" fill="#DEF9FF"/>
<rect x="47.5636" y="13.4255" width="0.170212" height="3.57444" fill="#9CAFB5"/>
<rect x="45.8616" y="21.2552" width="3.40423" height="3.91487" fill="#9E773A"/>
<rect x="46.202" y="21.5956" width="2.72338" height="3.57444" fill="#DEF9FF"/>
<rect x="47.5636" y="21.5956" width="0.170212" height="3.57444" fill="#9CAFB5"/>
<rect x="45.8616" y="29.0849" width="3.40423" height="3.91487" fill="#9E773A"/>
<rect x="46.202" y="29.4254" width="2.72338" height="3.57444" fill="#DEF9FF"/>
<rect x="47.5636" y="29.4254" width="0.170212" height="3.57444" fill="#9CAFB5"/>
<rect x="45.8616" y="37.2551" width="3.40423" height="3.91487" fill="#9E773A"/>
<rect x="46.202" y="37.5955" width="2.72338" height="3.57444" fill="#DEF9FF"/>
<rect x="47.5636" y="37.5955" width="0.170212" height="3.57444" fill="#9CAFB5"/>
<path d="M31.3221 43.3438L35.9677 47.8292H40.4784V52.212H38.4364V60.2979H34.5634V52.212H26.6063V60.2979H22.9042V52.212H20.5214V47.8292H25.2079L29.9393 43.338L30.6337 42.6788L31.3221 43.3438Z" fill="#A08A75" stroke="#C1AB96" stroke-width="2"/>
<rect x="34.1169" y="11.8936" width="0.340423" height="5.10635" fill="#ADA07D"/>
<rect x="34.1169" y="19.8936" width="0.340423" height="5.27656" fill="#ADA07D"/>
<rect x="34.1169" y="28.0637" width="0.340423" height="4.93613" fill="#ADA07D"/>
<rect x="34.1169" y="35.8934" width="0.340423" height="5.27656" fill="#ADA07D"/>
<rect x="44.3296" y="11.8936" width="0.340423" height="5.10635" fill="#ADA07D"/>
<rect x="44.3296" y="19.8936" width="0.340423" height="5.27656" fill="#ADA07D"/>
<rect x="44.3296" y="28.0637" width="0.340423" height="4.93613" fill="#ADA07D"/>
<rect x="44.3296" y="35.8934" width="0.340423" height="5.27656" fill="#ADA07D"/>
<rect x="50.2871" y="11.8936" width="2.8936" height="5.10635" fill="#9D846E"/>
<rect x="50.2871" y="19.8936" width="2.8936" height="5.27656" fill="#9D846E"/>
<rect x="50.2871" y="27.7232" width="2.8936" height="5.27656" fill="#9D846E"/>
<rect x="50.2871" y="35.8934" width="2.8936" height="5.27656" fill="#9D846E"/>
<rect x="49.7762" y="11.8936" width="0.510635" height="5.10635" fill="#735A43"/>
<rect x="49.7762" y="19.8936" width="0.510635" height="5.27656" fill="#735A43"/>
<rect x="49.7762" y="27.7232" width="0.510635" height="5.27656" fill="#735A43"/>
<rect x="49.7762" y="35.8934" width="0.510635" height="5.27656" fill="#735A43"/>
<rect x="53.1807" y="11.8936" width="0.510635" height="5.10635" fill="#C4B5A7"/>
<rect x="53.1807" y="19.8936" width="0.510635" height="5.27656" fill="#C4B5A7"/>
<rect x="53.1807" y="27.7232" width="0.510635" height="5.27656" fill="#C4B5A7"/>
<rect x="53.1807" y="35.8934" width="0.510635" height="5.27656" fill="#C4B5A7"/>
<rect x="53.6913" y="22.2765" width="0.680846" height="2.8936" fill="#B5ACA5"/>
<rect x="53.6913" y="30.1063" width="0.680846" height="2.8936" fill="#B5ACA5"/>
<rect x="53.6913" y="38.2764" width="0.680846" height="2.8936" fill="#B5ACA5"/>
<rect x="21.8618" y="22.6169" width="1.70212" height="2.55317" fill="#AEAEAE"/>
<rect x="21.8618" y="30.4466" width="1.70212" height="2.55317" fill="#AEAEAE"/>
<rect x="21.8618" y="38.6168" width="1.70212" height="2.55317" fill="#AEAEAE"/>
<rect x="40.9683" y="46.2389" width="7.86156" height="11.9992" fill="url(#paint0_linear_231_6187)"/>
<rect x="25.9468" y="58.8719" width="9.36163" height="0.510635" fill="#5B4C3C"/>
<rect x="26.968" y="51.5529" width="7.3191" height="7.3191" fill="#311C0B"/>
<rect x="50.2871" y="43.8934" width="2.8936" height="15.4892" fill="#9D846E"/>
<rect x="23.5637" y="59.3826" width="29.6168" height="0.510635" fill="#9D846E"/>
<path d="M29.189 59.4928L22.5174 59.9512L21.5972 62.472L61.1665 61.7845L58.6359 59.9512L53.5747 59.2637H49.2037H45.9829H42.072L40.4616 59.9512L33.79 60.1803L29.189 59.4928Z" fill="#B3CF89"/>
<g filter="url(#filter1_g_231_6187)">
<path d="M6.06355 47.6958C4.76433 47.5393 3.77166 49.3968 3.43772 50.3452L2.99082 50.2254C2.2606 50.2692 0.731512 50.4343 0.456954 50.7439C0.182397 51.0535 1.63264 52.0169 2.39209 52.4599C1.62586 53.5319 0.122917 55.9233 0.240944 56.9129C0.358972 57.9025 1.02426 58.1606 1.34215 58.1659C0.327172 59.5704 -1.52724 62.618 -0.825032 63.5726C-0.122825 64.5271 2.36706 65.0665 3.52423 65.2169C4.27976 64.7807 5.92168 64.135 6.44513 65.0416C6.96858 65.9482 8.371 66.1963 9.00679 66.207C9.97116 65.5872 11.9478 64.169 12.1394 63.454C12.331 62.7389 11.4559 61.8339 10.9944 61.4707C12.0386 60.553 13.9873 58.345 13.4288 56.8542C12.8703 55.3633 10.5653 54.7297 9.48263 54.5993C10.2235 53.9197 11.4764 52.1638 10.5603 50.5772C9.64432 48.9906 8.54003 49.477 8.10239 49.9186C7.96412 49.2429 7.36277 47.8524 6.06355 47.6958Z" fill="#14AE67"/>
</g>
<g filter="url(#filter2_g_231_6187)">
<path d="M65.6136 53.7192C64.7978 53.6209 64.1746 54.7872 63.9649 55.3827L63.6843 55.3075C63.2258 55.335 62.2657 55.4387 62.0933 55.6331C61.9209 55.8275 62.8315 56.4324 63.3083 56.7105C62.8272 57.3836 61.8835 58.8851 61.9576 59.5065C62.0318 60.1279 62.4495 60.2899 62.6491 60.2933C62.0118 61.1752 60.8474 63.0887 61.2883 63.6881C61.7292 64.2874 63.2926 64.6261 64.0192 64.7206C64.4936 64.4467 65.5245 64.0412 65.8532 64.6105C66.1819 65.1797 67.0624 65.3355 67.4616 65.3422C68.0672 64.9531 69.3083 64.0626 69.4286 63.6136C69.5489 63.1646 68.9994 62.5964 68.7096 62.3683C69.3653 61.7921 70.5889 60.4057 70.2382 59.4696C69.8875 58.5336 68.4402 58.1357 67.7604 58.0538C68.2256 57.6271 69.0123 56.5246 68.4371 55.5284C67.8619 54.5322 67.1686 54.8376 66.8938 55.1149C66.807 54.6906 66.4294 53.8175 65.6136 53.7192Z" fill="#027640"/>
</g>
<path d="M6.06671 68.4687L5.11304 68.4527L5.11304 60.6133L2.62312 58.7487L5.15396 59.9058L5.39952 55.6607L3.49344 53.713L5.42681 55.189L5.67237 50.944L5.73947 56.6014L7.79887 54.6272L5.74646 57.1906L5.76373 58.6472C5.99338 58.5052 8.57541 57.3898 9.83771 56.8499L5.77388 59.5031L6.06671 68.4687Z" fill="#572900"/>
<g filter="url(#filter3_g_231_6187)">
<path d="M65.6154 66.7623L65.0166 66.7522L65.0166 61.83L63.4532 60.6592L65.0423 61.3857L65.1965 58.7203L63.9997 57.4973L65.2136 58.4241L65.3678 55.7586L65.4099 59.3109L66.703 58.0713L65.4143 59.6809L65.4252 60.5954C65.5694 60.5063 67.1906 59.806 67.9832 59.467L65.4316 61.1329L65.6154 66.7623Z" fill="#572900"/>
</g>
<rect x="3" y="5" width="66" height="5" rx="2.5" fill="#D3D3D3" fill-opacity="0.5"/>
</g>
<rect x="2.5" y="1.5" width="69" height="69" rx="4.5" stroke="#FA6767"/>
</g>
<defs>
<filter id="filter0_d_231_6187" x="0" y="0" width="74" height="74" filterUnits="userSpaceOnUse" color-interpolation-filters="sRGB">
<feFlood flood-opacity="0" result="BackgroundImageFix"/>
<feColorMatrix in="SourceAlpha" type="matrix" values="0 0 0 0 0 0 0 0 0 0 0 0 0 0 0 0 0 0 127 0" result="hardAlpha"/>
<feOffset dy="1"/>
<feGaussianBlur stdDeviation="1"/>
<feComposite in2="hardAlpha" operator="out"/>
<feColorMatrix type="matrix" values="0 0 0 0 0 0 0 0 0 0 0 0 0 0 0 0 0 0 0.2 0"/>
<feBlend mode="normal" in2="BackgroundImageFix" result="effect1_dropShadow_231_6187"/>
<feBlend mode="normal" in="SourceGraphic" in2="effect1_dropShadow_231_6187" result="shape"/>
</filter>
<filter id="filter1_g_231_6187" x="-1.27998" y="47.3865" width="15.1074" height="19.1205" filterUnits="userSpaceOnUse" color-interpolation-filters="sRGB">
<feFlood flood-opacity="0" result="BackgroundImageFix"/>
<feBlend mode="normal" in="SourceGraphic" in2="BackgroundImageFix" result="shape"/>
<feTurbulence type="fractalNoise" baseFrequency="2 2" numOctaves="3" seed="2421" />
<feDisplacementMap in="shape" scale="0.60000002384185791" xChannelSelector="R" yChannelSelector="G" result="displacedImage" width="100%" height="100%" />
<feMerge result="effect1_texture_231_6187">
<feMergeNode in="displacedImage"/>
</feMerge>
</filter>
<filter id="filter2_g_231_6187" x="60.791" y="53.3134" width="9.90913" height="12.4288" filterUnits="userSpaceOnUse" color-interpolation-filters="sRGB">
<feFlood flood-opacity="0" result="BackgroundImageFix"/>
<feBlend mode="normal" in="SourceGraphic" in2="BackgroundImageFix" result="shape"/>
<feTurbulence type="fractalNoise" baseFrequency="2 2" numOctaves="3" seed="7660" />
<feDisplacementMap in="shape" scale="0.80000001192092896" xChannelSelector="R" yChannelSelector="G" result="displacedImage" width="100%" height="100%" />
<feMerge result="effect1_texture_231_6187">
<feMergeNode in="displacedImage"/>
</feMerge>
</filter>
<filter id="filter3_g_231_6187" x="63.0532" y="55.3587" width="5.32991" height="11.8037" filterUnits="userSpaceOnUse" color-interpolation-filters="sRGB">
<feFlood flood-opacity="0" result="BackgroundImageFix"/>
<feBlend mode="normal" in="SourceGraphic" in2="BackgroundImageFix" result="shape"/>
<feTurbulence type="fractalNoise" baseFrequency="2 2" numOctaves="3" seed="7660" />
<feDisplacementMap in="shape" scale="0.80000001192092896" xChannelSelector="R" yChannelSelector="G" result="displacedImage" width="100%" height="100%" />
<feMerge result="effect1_texture_231_6187">
<feMergeNode in="displacedImage"/>
</feMerge>
</filter>
<linearGradient id="paint0_linear_231_6187" x1="44.899" y1="46.2389" x2="44.899" y2="58.2381" gradientUnits="userSpaceOnUse">
<stop stop-color="#A2E3FF"/>
<stop offset="1" stop-color="white"/>
</linearGradient>
<clipPath id="clip0_231_6187">
<rect x="2" y="1" width="70" height="70" rx="5" fill="white"/>
</clipPath>
</defs>
</svg>
