<svg width="164" height="74" viewBox="0 0 164 74" fill="none" xmlns="http://www.w3.org/2000/svg">
<g filter="url(#filter0_d_239_402)">
<rect x="2" y="1" width="160" height="70" rx="5" fill="#2FBE6F"/>
</g>
<path d="M29.12 37.288H37.776V39.144H29.12V37.288ZM37.136 37.288H39.152C39.152 37.288 39.152 37.3413 39.152 37.448C39.152 37.544 39.152 37.6613 39.152 37.8C39.152 37.928 39.1467 38.0347 39.136 38.12C39.0933 39.3253 39.0453 40.3653 38.992 41.24C38.9387 42.104 38.8747 42.824 38.8 43.4C38.736 43.976 38.656 44.4347 38.56 44.776C38.464 45.1173 38.3467 45.3733 38.208 45.544C37.9947 45.8 37.7707 45.9813 37.536 46.088C37.312 46.1947 37.0453 46.2693 36.736 46.312C36.4693 46.3547 36.1173 46.376 35.68 46.376C35.2427 46.3867 34.784 46.3813 34.304 46.36C34.2933 46.072 34.2293 45.7413 34.112 45.368C33.9947 45.0053 33.8507 44.6907 33.68 44.424C34.128 44.456 34.544 44.4773 34.928 44.488C35.312 44.4987 35.6 44.504 35.792 44.504C35.9413 44.504 36.064 44.4933 36.16 44.472C36.256 44.44 36.352 44.376 36.448 44.28C36.576 44.1413 36.6773 43.8373 36.752 43.368C36.8373 42.888 36.912 42.184 36.976 41.256C37.04 40.3173 37.0933 39.1067 37.136 37.624V37.288ZM30.912 31.608L32.992 32.216C32.5973 33.144 32.1227 34.04 31.568 34.904C31.024 35.768 30.432 36.5627 29.792 37.288C29.1627 38.0133 28.5067 38.6427 27.824 39.176C27.7067 39.0373 27.5467 38.872 27.344 38.68C27.1413 38.4773 26.9333 38.28 26.72 38.088C26.5173 37.896 26.336 37.7413 26.176 37.624C26.8373 37.176 27.4667 36.6427 28.064 36.024C28.672 35.3947 29.2213 34.7067 29.712 33.96C30.2027 33.2027 30.6027 32.4187 30.912 31.608ZM37.008 31.576C37.264 32.088 37.5733 32.6107 37.936 33.144C38.2987 33.6773 38.6933 34.2 39.12 34.712C39.5573 35.2133 40 35.688 40.448 36.136C40.9067 36.584 41.3547 36.9733 41.792 37.304C41.6213 37.432 41.4293 37.6027 41.216 37.816C41.0133 38.0187 40.816 38.2267 40.624 38.44C40.4427 38.6533 40.288 38.8507 40.16 39.032C39.712 38.616 39.2587 38.152 38.8 37.64C38.3413 37.1173 37.888 36.568 37.44 35.992C37.0027 35.4053 36.5867 34.8027 36.192 34.184C35.7973 33.5547 35.44 32.936 35.12 32.328L37.008 31.576ZM31.968 37.832H34.064C33.9893 38.728 33.8667 39.6027 33.696 40.456C33.5253 41.3093 33.2427 42.1147 32.848 42.872C32.464 43.6293 31.904 44.3227 31.168 44.952C30.4427 45.5707 29.4827 46.0987 28.288 46.536C28.2133 46.3547 28.1067 46.1573 27.968 45.944C27.8293 45.7307 27.68 45.5173 27.52 45.304C27.36 45.1013 27.2 44.9253 27.04 44.776C28.1173 44.4347 28.9707 44.0133 29.6 43.512C30.2293 43 30.704 42.4453 31.024 41.848C31.344 41.24 31.5627 40.5947 31.68 39.912C31.808 39.2293 31.904 38.536 31.968 37.832ZM48.96 32.696H58.096V34.088H48.96V32.696ZM49.136 37.016H57.904V38.248H49.136V37.016ZM49.472 38.792H57.584V40.008H49.472V38.792ZM48.624 40.552H58.32V41.848H48.624V40.552ZM52.384 31.4H54.32V33.448H52.384V31.4ZM50.848 36.008H52.56V41.288H50.848V36.008ZM54.224 36.008H55.936V41.288H54.224V36.008ZM52.176 40.888L53.648 41.336C53.328 41.7627 52.928 42.1627 52.448 42.536C51.9787 42.8987 51.4667 43.224 50.912 43.512C50.3573 43.8 49.8027 44.0453 49.248 44.248C49.1733 44.1413 49.072 44.0133 48.944 43.864C48.8267 43.704 48.704 43.5493 48.576 43.4C48.448 43.24 48.3307 43.1173 48.224 43.032C48.7573 42.872 49.2747 42.6907 49.776 42.488C50.2773 42.2853 50.736 42.0507 51.152 41.784C51.5787 41.5067 51.92 41.208 52.176 40.888ZM51.28 34.056L52.896 34.536C52.512 35.0053 52.016 35.4373 51.408 35.832C50.8 36.2267 50.1973 36.552 49.6 36.808C49.5147 36.6907 49.392 36.5573 49.232 36.408C49.0827 36.2587 48.928 36.1147 48.768 35.976C48.6187 35.8267 48.4853 35.7093 48.368 35.624C48.944 35.432 49.4987 35.2027 50.032 34.936C50.5653 34.6693 50.9813 34.376 51.28 34.056ZM54.736 41.128C55.0347 42.0347 55.504 42.8347 56.144 43.528C56.7947 44.2213 57.6053 44.728 58.576 45.048C58.3947 45.1973 58.1973 45.4107 57.984 45.688C57.7707 45.9653 57.6053 46.2107 57.488 46.424C56.4107 45.9973 55.5253 45.3573 54.832 44.504C54.1493 43.64 53.6213 42.6213 53.248 41.448L54.736 41.128ZM57.088 41.96L58.096 42.952C57.7333 43.208 57.3333 43.4533 56.896 43.688C56.4587 43.912 56.0587 44.0987 55.696 44.248L54.832 43.336C55.0667 43.2293 55.3173 43.096 55.584 42.936C55.8613 42.776 56.1333 42.6107 56.4 42.44C56.6667 42.2587 56.896 42.0987 57.088 41.96ZM49.184 44.872C49.8667 44.7867 50.6667 44.6747 51.584 44.536C52.512 44.3867 53.4507 44.232 54.4 44.072L54.528 45.464C53.6747 45.624 52.8213 45.7733 51.968 45.912C51.1147 46.0613 50.336 46.1947 49.632 46.312L49.184 44.872ZM53.968 34.792L55.248 33.96C55.6107 34.12 55.984 34.3067 56.368 34.52C56.752 34.7227 57.1147 34.936 57.456 35.16C57.808 35.3733 58.1013 35.576 58.336 35.768L57.024 36.712C56.8 36.5093 56.5173 36.2907 56.176 36.056C55.8347 35.8213 55.472 35.592 55.088 35.368C54.704 35.144 54.3307 34.952 53.968 34.792ZM43.936 36.312H48.192V37.768H43.936V36.312ZM44.048 31.912H48.16V33.352H44.048V31.912ZM43.936 38.504H48.192V39.944H43.936V38.504ZM43.28 34.056H48.608V35.576H43.28V34.056ZM44.816 40.712H48.176V45.56H44.816V44.056H46.64V42.216H44.816V40.712ZM43.888 40.712H45.392V46.216H43.888V40.712ZM50.592 42.936L51.424 42.104L52.224 42.36V45.288H50.592V42.936ZM74.848 34.92C74.7307 35.048 74.624 35.1653 74.528 35.272C74.4427 35.3787 74.368 35.4853 74.304 35.592C73.984 36.104 73.6053 36.6587 73.168 37.256C72.7307 37.8533 72.2453 38.456 71.712 39.064C71.1787 39.672 70.6133 40.2587 70.016 40.824C69.4293 41.3893 68.8213 41.9013 68.192 42.36L66.608 40.872C67.1413 40.5093 67.6427 40.1093 68.112 39.672C68.592 39.224 69.0347 38.7707 69.44 38.312C69.856 37.8533 70.224 37.4053 70.544 36.968C70.864 36.5307 71.1307 36.1307 71.344 35.768C71.1307 35.768 70.848 35.768 70.496 35.768C70.144 35.768 69.7333 35.768 69.264 35.768C68.8053 35.768 68.32 35.768 67.808 35.768C67.296 35.768 66.784 35.768 66.272 35.768C65.7707 35.768 65.2907 35.768 64.832 35.768C64.384 35.768 63.9893 35.768 63.648 35.768C63.3173 35.768 63.0613 35.768 62.88 35.768C62.6667 35.768 62.4373 35.7733 62.192 35.784C61.9573 35.7947 61.7333 35.8107 61.52 35.832C61.3067 35.8533 61.1467 35.8693 61.04 35.88V33.64C61.1787 33.6507 61.3547 33.672 61.568 33.704C61.792 33.736 62.0213 33.7573 62.256 33.768C62.4907 33.7787 62.6987 33.784 62.88 33.784C63.0187 33.784 63.2533 33.784 63.584 33.784C63.9253 33.784 64.3253 33.784 64.784 33.784C65.2427 33.784 65.7333 33.784 66.256 33.784C66.7893 33.784 67.3227 33.784 67.856 33.784C68.4 33.784 68.9227 33.784 69.424 33.784C69.9253 33.784 70.3733 33.784 70.768 33.784C71.1733 33.784 71.504 33.784 71.76 33.784C72.3893 33.784 72.8853 33.7253 73.248 33.608L74.848 34.92ZM66.4 42.584C66.1653 42.3493 65.8933 42.0933 65.584 41.816C65.2853 41.528 64.9707 41.24 64.64 40.952C64.32 40.664 64.0053 40.3973 63.696 40.152C63.3973 39.896 63.1253 39.6827 62.88 39.512L64.576 38.152C64.7893 38.312 65.04 38.5093 65.328 38.744C65.6267 38.9787 65.9413 39.2347 66.272 39.512C66.6027 39.7893 66.9387 40.0773 67.28 40.376C67.6213 40.6747 67.9467 40.968 68.256 41.256C68.608 41.5973 68.9707 41.9653 69.344 42.36C69.728 42.7547 70.0907 43.1387 70.432 43.512C70.784 43.8853 71.0827 44.232 71.328 44.552L69.456 46.04C69.232 45.7413 68.944 45.3947 68.592 45C68.2507 44.5947 67.888 44.1787 67.504 43.752C67.12 43.3253 66.752 42.936 66.4 42.584ZM80.256 32.84C80.5333 33.032 80.8587 33.2667 81.232 33.544C81.6053 33.8213 81.9893 34.1253 82.384 34.456C82.7893 34.776 83.168 35.0907 83.52 35.4C83.872 35.7093 84.16 35.9867 84.384 36.232L82.752 37.896C82.5493 37.672 82.2827 37.4053 81.952 37.096C81.6213 36.7867 81.264 36.4667 80.88 36.136C80.496 35.8053 80.1173 35.4907 79.744 35.192C79.3707 34.8933 79.04 34.6427 78.752 34.44L80.256 32.84ZM78.256 43.496C79.088 43.3787 79.872 43.2133 80.608 43C81.344 42.7867 82.0267 42.5413 82.656 42.264C83.2853 41.9867 83.8613 41.6987 84.384 41.4C85.2907 40.856 86.1227 40.2373 86.88 39.544C87.6373 38.8507 88.2987 38.1307 88.864 37.384C89.4293 36.6267 89.8773 35.8907 90.208 35.176L91.456 37.432C91.0507 38.1467 90.5493 38.8613 89.952 39.576C89.3653 40.2907 88.6987 40.9733 87.952 41.624C87.2053 42.264 86.4 42.84 85.536 43.352C84.992 43.6827 84.4053 43.9973 83.776 44.296C83.1467 44.584 82.48 44.84 81.776 45.064C81.0827 45.2987 80.3573 45.48 79.6 45.608L78.256 43.496ZM98.144 32.328C98.4 32.4773 98.6933 32.6533 99.024 32.856C99.3547 33.0587 99.6907 33.2667 100.032 33.48C100.384 33.6933 100.709 33.9013 101.008 34.104C101.317 34.296 101.579 34.4667 101.792 34.616L100.592 36.392C100.379 36.232 100.117 36.0507 99.808 35.848C99.4987 35.6453 99.1787 35.4373 98.848 35.224C98.5173 35.0107 98.1867 34.808 97.856 34.616C97.536 34.4133 97.2427 34.2373 96.976 34.088L98.144 32.328ZM95.168 43.688C95.776 43.5813 96.384 43.4533 96.992 43.304C97.6107 43.144 98.224 42.9467 98.832 42.712C99.4507 42.4773 100.048 42.2053 100.624 41.896C101.531 41.384 102.373 40.808 103.152 40.168C103.941 39.528 104.645 38.8453 105.264 38.12C105.893 37.3947 106.421 36.6533 106.848 35.896L108.08 38.072C107.333 39.1813 106.411 40.2267 105.312 41.208C104.224 42.1893 103.024 43.0587 101.712 43.816C101.168 44.1253 100.571 44.4133 99.92 44.68C99.28 44.9467 98.6453 45.176 98.016 45.368C97.3973 45.5707 96.848 45.7147 96.368 45.8L95.168 43.688ZM95.68 35.976C95.9467 36.1253 96.2453 36.3013 96.576 36.504C96.9173 36.696 97.2587 36.8987 97.6 37.112C97.9413 37.3253 98.2613 37.528 98.56 37.72C98.8693 37.912 99.1253 38.0827 99.328 38.232L98.16 40.024C97.9253 39.864 97.6587 39.688 97.36 39.496C97.0613 39.2933 96.7413 39.0853 96.4 38.872C96.0693 38.648 95.7387 38.44 95.408 38.248C95.088 38.056 94.7893 37.8907 94.512 37.752L95.68 35.976ZM113.408 35.96C113.547 35.9707 113.733 35.9867 113.968 36.008C114.203 36.0187 114.448 36.0293 114.704 36.04C114.96 36.04 115.189 36.04 115.392 36.04C115.648 36.04 115.979 36.04 116.384 36.04C116.789 36.04 117.227 36.04 117.696 36.04C118.176 36.04 118.651 36.04 119.12 36.04C119.589 36.04 120.027 36.04 120.432 36.04C120.837 36.04 121.173 36.04 121.44 36.04C121.632 36.04 121.851 36.04 122.096 36.04C122.352 36.0293 122.544 36.0187 122.672 36.008C122.661 36.1147 122.656 36.28 122.656 36.504C122.656 36.7173 122.656 36.9093 122.656 37.08C122.656 37.1973 122.656 37.4427 122.656 37.816C122.656 38.1787 122.656 38.6267 122.656 39.16C122.656 39.6933 122.656 40.2587 122.656 40.856C122.656 41.4533 122.656 42.04 122.656 42.616C122.656 43.1813 122.656 43.688 122.656 44.136C122.656 44.5733 122.656 44.8987 122.656 45.112C122.656 45.24 122.656 45.416 122.656 45.64C122.667 45.8747 122.672 46.0613 122.672 46.2H120.656C120.667 46.0613 120.672 45.8693 120.672 45.624C120.672 45.3787 120.672 45.176 120.672 45.016C120.672 44.7387 120.672 44.3867 120.672 43.96C120.672 43.5227 120.672 43.0533 120.672 42.552C120.672 42.04 120.672 41.528 120.672 41.016C120.672 40.4933 120.672 40.008 120.672 39.56C120.672 39.112 120.672 38.7387 120.672 38.44C120.672 38.1307 120.672 37.928 120.672 37.832C120.576 37.832 120.405 37.832 120.16 37.832C119.915 37.832 119.632 37.832 119.312 37.832C118.992 37.832 118.645 37.832 118.272 37.832C117.909 37.832 117.547 37.832 117.184 37.832C116.832 37.832 116.496 37.832 116.176 37.832C115.867 37.832 115.605 37.832 115.392 37.832C115.189 37.832 114.96 37.8373 114.704 37.848C114.448 37.848 114.197 37.8533 113.952 37.864C113.717 37.8747 113.536 37.8853 113.408 37.896V35.96ZM113.824 39.72C114.037 39.7307 114.304 39.7413 114.624 39.752C114.955 39.7627 115.269 39.768 115.568 39.768C115.696 39.768 115.92 39.768 116.24 39.768C116.571 39.768 116.949 39.768 117.376 39.768C117.813 39.768 118.261 39.768 118.72 39.768C119.179 39.768 119.611 39.768 120.016 39.768C120.432 39.768 120.784 39.768 121.072 39.768C121.36 39.768 121.536 39.768 121.6 39.768V41.576C121.525 41.576 121.344 41.576 121.056 41.576C120.779 41.576 120.432 41.576 120.016 41.576C119.611 41.576 119.179 41.576 118.72 41.576C118.261 41.576 117.813 41.576 117.376 41.576C116.949 41.576 116.576 41.576 116.256 41.576C115.936 41.576 115.707 41.576 115.568 41.576C115.269 41.576 114.949 41.5813 114.608 41.592C114.277 41.592 114.016 41.5973 113.824 41.608V39.72ZM113.232 43.64C113.371 43.6507 113.563 43.6667 113.808 43.688C114.053 43.6987 114.325 43.704 114.624 43.704C114.784 43.704 115.051 43.704 115.424 43.704C115.797 43.704 116.224 43.704 116.704 43.704C117.195 43.704 117.701 43.704 118.224 43.704C118.747 43.704 119.243 43.704 119.712 43.704C120.192 43.704 120.603 43.704 120.944 43.704C121.285 43.704 121.509 43.704 121.616 43.704V45.56C121.477 45.56 121.232 45.56 120.88 45.56C120.528 45.56 120.112 45.56 119.632 45.56C119.163 45.56 118.672 45.56 118.16 45.56C117.648 45.56 117.152 45.56 116.672 45.56C116.192 45.56 115.765 45.56 115.392 45.56C115.029 45.56 114.768 45.56 114.608 45.56C114.384 45.56 114.133 45.5653 113.856 45.576C113.579 45.5867 113.371 45.5973 113.232 45.608V43.64ZM130.656 32.84C130.933 33.032 131.259 33.2667 131.632 33.544C132.005 33.8213 132.389 34.1253 132.784 34.456C133.189 34.776 133.568 35.0907 133.92 35.4C134.272 35.7093 134.56 35.9867 134.784 36.232L133.152 37.896C132.949 37.672 132.683 37.4053 132.352 37.096C132.021 36.7867 131.664 36.4667 131.28 36.136C130.896 35.8053 130.517 35.4907 130.144 35.192C129.771 34.8933 129.44 34.6427 129.152 34.44L130.656 32.84ZM128.656 43.496C129.488 43.3787 130.272 43.2133 131.008 43C131.744 42.7867 132.427 42.5413 133.056 42.264C133.685 41.9867 134.261 41.6987 134.784 41.4C135.691 40.856 136.523 40.2373 137.28 39.544C138.037 38.8507 138.699 38.1307 139.264 37.384C139.829 36.6267 140.277 35.8907 140.608 35.176L141.856 37.432C141.451 38.1467 140.949 38.8613 140.352 39.576C139.765 40.2907 139.099 40.9733 138.352 41.624C137.605 42.264 136.8 42.84 135.936 43.352C135.392 43.6827 134.805 43.9973 134.176 44.296C133.547 44.584 132.88 44.84 132.176 45.064C131.483 45.2987 130.757 45.48 130 45.608L128.656 43.496Z" fill="white"/>
<rect x="6" y="6" width="150" height="5" rx="2.5" fill="white" fill-opacity="0.5"/>
<defs>
<filter id="filter0_d_239_402" x="0" y="0" width="164" height="74" filterUnits="userSpaceOnUse" color-interpolation-filters="sRGB">
<feFlood flood-opacity="0" result="BackgroundImageFix"/>
<feColorMatrix in="SourceAlpha" type="matrix" values="0 0 0 0 0 0 0 0 0 0 0 0 0 0 0 0 0 0 127 0" result="hardAlpha"/>
<feOffset dy="1"/>
<feGaussianBlur stdDeviation="1"/>
<feComposite in2="hardAlpha" operator="out"/>
<feColorMatrix type="matrix" values="0 0 0 0 0 0 0 0 0 0 0 0 0 0 0 0 0 0 0.2 0"/>
<feBlend mode="normal" in2="BackgroundImageFix" result="effect1_dropShadow_239_402"/>
<feBlend mode="normal" in="SourceGraphic" in2="effect1_dropShadow_239_402" result="shape"/>
</filter>
</defs>
</svg>
