<svg width="74" height="74" viewBox="0 0 74 74" fill="none" xmlns="http://www.w3.org/2000/svg">
<g filter="url(#filter0_d_231_6186)">
<g clip-path="url(#clip0_231_6186)">
<rect x="2" y="1" width="70" height="70" rx="5" fill="white"/>
<path d="M-1 66.0862V71H75.9801C76.0631 68.5431 75.9302 63.4327 74.7344 62.6465C73.2397 61.6637 71.994 61.418 62.029 58.9611C52.0639 56.5042 32.1338 56.9955 18.681 58.224C7.91873 59.2068 1.07605 63.8749 -1 66.0862Z" fill="#B3CF89"/>
<path d="M54.1641 71C55.7879 69.7616 59.7239 62.6979 61.5 59L65.3282 59.1322C68.373 59.7514 72.179 61.1102 73.7014 61.7122L73.2664 71H54.1641Z" fill="#A5BE7A"/>
<path d="M55.6988 30.7079V57.5791H18.1493V17.4925H43.7713V30.2207V30.7079H55.6988Z" fill="#85838E"/>
<path d="M31.5961 19.5222H42.252V24.089H31.5961V19.5222Z" fill="#9B969A"/>
<path d="M19.6715 19.5222H30.3274V24.089H19.6715V19.5222Z" fill="#9B969A"/>
<path d="M19.6715 32.7153H30.3274V37.2821H19.6715V32.7153Z" fill="#9B969A"/>
<path d="M19.6715 46.162H30.3274V50.4752H19.6715V46.162Z" fill="#9B969A"/>
<path d="M31.5961 32.7153H42.252V37.2821H31.5961V32.7153Z" fill="#9B969A"/>
<path d="M44.0278 32.7153H53.9226V37.2821H44.0278V32.7153Z" fill="#9B969A"/>
<path d="M31.5961 46.162H42.252V50.4752H31.5961V46.162Z" fill="#9B969A"/>
<path d="M19.6715 28.4022V19.5222H30.3274V28.4022H19.6715Z" fill="#9B9A9A"/>
<path d="M19.6715 41.8489V32.7153H30.3274V41.8489H19.6715Z" fill="#9B9A9A"/>
<path d="M19.6715 54.0271V45.4009H30.3274V54.0271H19.6715Z" fill="#9B9A9A"/>
<path d="M31.5961 28.4022V19.5222H42.252V28.4022H31.5961Z" fill="#9B9A9A"/>
<path d="M31.5961 41.8489V32.7153H42.252V41.8489H31.5961Z" fill="#9B9A9A"/>
<path d="M43.5204 41.8489V32.7153H53.9226V41.8489H43.5204Z" fill="#9B9A9A"/>
<path d="M31.5961 54.0271V45.4009H42.252V54.0271H31.5961Z" fill="#9B9A9A"/>
<rect x="17.3881" y="16.985" width="27.1473" height="0.761138" fill="#CDCDCB"/>
<rect x="43.0129" y="30.1782" width="13.1931" height="0.761138" fill="#CDCDCB"/>
<rect x="45.8038" y="46.6695" width="6.85024" height="1.26856" fill="#CDCDCB"/>
<rect x="46.5649" y="48.6991" width="5.32797" height="8.87994" fill="#4695A4"/>
<rect x="44.7891" y="56.818" width="7.86509" height="1.77599" fill="#463D36"/>
<rect x="44.0278" y="58.594" width="9.64108" height="0.761138" fill="#554639"/>
<rect x="18.1493" y="57.5791" width="38.0569" height="1.77599" fill="#CDCDCB"/>
<path d="M21.955 21.5519V24.3428H22.3956V21.9706H24.5255V24.3428H25.0396V21.9706H27.096V24.3428H27.5366V21.5519H21.955Z" fill="white"/>
<path d="M21.955 34.4913V37.5358H22.3956V34.948H24.5255V37.5358H25.0396V34.948H27.096V37.5358H27.5366V34.4913H21.955Z" fill="white"/>
<path d="M21.955 46.9232V49.9678H22.3956V47.3799H24.5255V49.9678H25.0396V47.3799H27.096V49.9678H27.5366V46.9232H21.955Z" fill="white"/>
<path d="M33.8794 21.5519V24.3428H34.3201V21.9706H36.4499V24.3428H36.964V21.9706H39.0204V24.3428H39.4611V21.5519H33.8794Z" fill="white"/>
<path d="M33.8794 34.4913V37.5358H34.3201V34.948H36.4499V37.5358H36.964V34.948H39.0204V37.5358H39.4611V34.4913H33.8794Z" fill="white"/>
<path d="M46.0575 34.4913V37.5358H46.4982V34.948H48.628V37.5358H49.1421V34.948H51.1985V37.5358H51.6392V34.4913H46.0575Z" fill="white"/>
<path d="M33.8794 46.9232V49.9678H34.3201V47.3799H36.4499V49.9678H36.964V47.3799H39.0204V49.9678H39.4611V46.9232H33.8794Z" fill="white"/>
<rect x="19.6715" y="24.3427" width="10.6559" height="4.0594" fill="#D9D9D9"/>
<rect x="19.6715" y="37.5358" width="10.6559" height="4.31312" fill="#D9D9D9"/>
<rect x="19.6715" y="49.714" width="10.6559" height="4.31312" fill="#D9D9D9"/>
<rect x="31.5961" y="24.3427" width="10.6559" height="4.0594" fill="#D9D9D9"/>
<rect x="31.5961" y="37.5358" width="10.6559" height="4.31312" fill="#D9D9D9"/>
<rect x="43.5204" y="37.5358" width="10.4022" height="4.31312" fill="#D9D9D9"/>
<rect x="31.5961" y="49.714" width="10.6559" height="4.31312" fill="#D9D9D9"/>
<rect x="22.4623" y="22.0593" width="2.0297" height="2.28341" fill="#BCDBE2"/>
<rect x="22.4623" y="34.9987" width="2.0297" height="2.53713" fill="#BCDBE2"/>
<rect x="22.4623" y="47.4306" width="2.0297" height="2.28341" fill="#BCDBE2"/>
<rect x="34.1331" y="22.0593" width="2.28341" height="2.28341" fill="#BCDBE2"/>
<rect x="34.1331" y="34.9987" width="2.28341" height="2.53713" fill="#BCDBE2"/>
<rect x="46.3113" y="34.9987" width="2.28341" height="2.53713" fill="#BCDBE2"/>
<rect x="34.1331" y="47.4306" width="2.28341" height="2.28341" fill="#BCDBE2"/>
<rect x="24.9995" y="22.0593" width="2.28341" height="2.28341" fill="#BCDBE2"/>
<rect x="24.9995" y="34.9987" width="2.28341" height="2.53713" fill="#BCDBE2"/>
<rect x="24.9995" y="47.4306" width="2.28341" height="2.28341" fill="#BCDBE2"/>
<rect x="36.924" y="22.0593" width="2.28341" height="2.28341" fill="#BCDBE2"/>
<rect x="36.924" y="34.9987" width="2.28341" height="2.53713" fill="#BCDBE2"/>
<rect x="49.1021" y="34.9987" width="2.0297" height="2.53713" fill="#BCDBE2"/>
<rect x="36.924" y="47.4306" width="2.28341" height="2.28341" fill="#BCDBE2"/>
<rect x="19.6715" y="25.3575" width="10.6559" height="0.253713" fill="white"/>
<rect x="19.6715" y="38.8044" width="10.6559" height="0.253713" fill="white"/>
<rect x="19.6715" y="50.9825" width="10.6559" height="0.253713" fill="white"/>
<rect x="31.5961" y="25.3575" width="10.6559" height="0.253713" fill="white"/>
<rect x="31.5961" y="38.8044" width="10.6559" height="0.253713" fill="white"/>
<rect x="43.5204" y="38.8044" width="10.4022" height="0.253713" fill="white"/>
<rect x="31.5961" y="50.9825" width="10.6559" height="0.253713" fill="white"/>
<rect x="19.6715" y="26.8799" width="10.6559" height="0.253713" fill="white"/>
<rect x="19.6715" y="40.3266" width="10.6559" height="0.253713" fill="white"/>
<rect x="19.6715" y="52.5049" width="10.6559" height="0.507425" fill="white"/>
<rect x="31.5961" y="26.8799" width="10.6559" height="0.253713" fill="white"/>
<rect x="31.5961" y="40.3266" width="10.6559" height="0.253713" fill="white"/>
<rect x="43.5204" y="40.3266" width="10.4022" height="0.253713" fill="white"/>
<rect x="31.5961" y="52.5049" width="10.6559" height="0.507425" fill="white"/>
<rect x="48.8485" y="50.4751" width="0.761138" height="0.761138" fill="white"/>
<rect x="48.8485" y="52.7585" width="0.761138" height="0.761138" fill="white"/>
<rect x="48.8485" y="55.042" width="0.761138" height="0.761138" fill="white"/>
<path d="M27.8445 58.6045L20.675 59.097L19.6862 61.806L62.2085 61.0672L59.4891 59.097L54.0502 58.3582H49.3529H45.8918H41.689L39.9585 59.097L32.789 59.3433L27.8445 58.6045Z" fill="#B3CF89"/>
<g filter="url(#filter1_g_231_6186)">
<path d="M68.4751 49.1407C67.2602 48.9943 66.332 50.7312 66.0197 51.618L65.6019 51.506C64.919 51.547 63.4892 51.7013 63.2325 51.9908C62.9758 52.2804 64.3319 53.1812 65.042 53.5954C64.3255 54.5978 62.9202 56.8339 63.0305 57.7592C63.1409 58.6846 63.763 58.9259 64.0602 58.9309C63.1112 60.2442 61.3772 63.0939 62.0338 63.9865C62.6904 64.879 65.0186 65.3834 66.1006 65.5241C66.8071 65.1162 68.3424 64.5124 68.8319 65.3601C69.3213 66.2079 70.6327 66.4398 71.2272 66.4498C72.1289 65.8703 73.9772 64.5442 74.1564 63.8756C74.3355 63.207 73.5172 62.3607 73.0857 62.0211C74.0621 61.163 75.8843 59.0983 75.3621 57.7043C74.8398 56.3103 72.6845 55.7179 71.6721 55.5959C72.3649 54.9604 73.5364 53.3185 72.6799 51.8349C71.8233 50.3514 70.7907 50.8062 70.3815 51.2191C70.2522 50.5873 69.6899 49.287 68.4751 49.1407Z" fill="#14AE67"/>
</g>
<g filter="url(#filter2_g_231_6186)">
<path d="M4.41193 54.8136C5.27848 54.7092 5.94057 55.9482 6.1633 56.5807L6.46137 56.5008C6.94841 56.53 7.96828 56.6401 8.1514 56.8466C8.33453 57.0532 7.36724 57.6957 6.86071 57.9912C7.37177 58.7062 8.3742 60.3012 8.29548 60.9612C8.21676 61.6212 7.77302 61.7934 7.561 61.7969C8.23797 62.7337 9.47482 64.7664 9.00646 65.4031C8.5381 66.0397 6.8774 66.3995 6.1056 66.4998C5.60168 66.2089 4.50655 65.7782 4.15742 66.3829C3.8083 66.9876 2.87291 67.153 2.44885 67.1602C1.80564 66.7468 0.487264 65.8009 0.359475 65.324C0.231685 64.847 0.815373 64.2434 1.12319 64.0012C0.426731 63.3891 -0.873059 61.9164 -0.500544 60.922C-0.128031 59.9277 1.40935 59.5051 2.13148 59.4181C1.6373 58.9648 0.801689 57.7937 1.41266 56.7354C2.02364 55.6772 2.76017 56.0017 3.05206 56.2962C3.14429 55.8455 3.54537 54.918 4.41193 54.8136Z" fill="#14AE67"/>
</g>
<g filter="url(#filter3_g_231_6186)">
<path d="M11.2355 51.045C12.3485 50.9109 13.1989 52.5022 13.485 53.3146L13.8678 53.2121C14.4934 53.2496 15.8033 53.391 16.0385 53.6563C16.2737 53.9215 15.0313 54.7468 14.3807 55.1263C15.0371 56.0446 16.3247 58.0933 16.2235 58.941C16.1224 59.7888 15.5525 60.0099 15.2802 60.0145C16.1497 61.2177 17.7383 63.8285 17.1367 64.6462C16.5352 65.4639 14.4022 65.926 13.4108 66.0549C12.7636 65.6812 11.357 65.128 10.9086 65.9047C10.4602 66.6814 9.25875 66.8939 8.71409 66.903C7.88794 66.3721 6.19461 65.1571 6.03047 64.5446C5.86634 63.932 6.61603 63.1567 7.0114 62.8456C6.11686 62.0594 4.44739 60.1679 4.92585 58.8907C5.40432 57.6136 7.37894 57.0708 8.30645 56.9591C7.67172 56.3768 6.59846 54.8726 7.38319 53.5134C8.16793 52.1542 9.11394 52.5709 9.48886 52.9492C9.60731 52.3704 10.1225 51.1791 11.2355 51.045Z" fill="#14AE67"/>
</g>
<path d="M68.478 68.5647L67.5862 68.5497L67.5862 61.2193L65.258 59.4758L67.6245 60.5578L67.8541 56.5883L66.0718 54.7671L67.8796 56.1473L68.1092 52.1778L68.172 57.4679L70.0977 55.6219L68.1785 58.0189L68.1947 59.3809C68.4094 59.2481 70.8238 58.2052 72.0041 57.7003L68.2042 60.1812L68.478 68.5647Z" fill="#572900"/>
<path d="M4.4099 68.6686L5.04598 68.6579L5.04598 63.4293L6.7067 62.1856L5.01868 62.9574L4.8549 60.126L6.12622 58.8269L4.8367 59.8114L4.67292 56.98L4.62817 60.7534L3.25459 59.4366L4.6235 61.1464L4.61198 62.1179C4.45881 62.0232 2.73666 61.2793 1.89473 60.9192L4.60521 62.6888L4.4099 68.6686Z" fill="#572900"/>
<path d="M11.2329 68.8406L12.0499 68.8268L12.0499 62.1111L14.1829 60.5137L12.0148 61.505L11.8044 57.8683L13.4373 56.1998L11.7811 57.4642L11.5707 53.8276L11.5132 58.6741L9.74898 56.9829L11.5072 59.1789L11.4924 60.4267C11.2957 60.3051 9.08374 59.3496 8.00236 58.8871L11.4837 61.16L11.2329 68.8406Z" fill="#572900"/>
<rect x="3" y="5" width="66" height="5" rx="2.5" fill="#D3D3D3" fill-opacity="0.5"/>
</g>
<rect x="2.5" y="1.5" width="69" height="69" rx="4.5" stroke="#2FBE6F"/>
</g>
<defs>
<filter id="filter0_d_231_6186" x="0" y="0" width="74" height="74" filterUnits="userSpaceOnUse" color-interpolation-filters="sRGB">
<feFlood flood-opacity="0" result="BackgroundImageFix"/>
<feColorMatrix in="SourceAlpha" type="matrix" values="0 0 0 0 0 0 0 0 0 0 0 0 0 0 0 0 0 0 127 0" result="hardAlpha"/>
<feOffset dy="1"/>
<feGaussianBlur stdDeviation="1"/>
<feComposite in2="hardAlpha" operator="out"/>
<feColorMatrix type="matrix" values="0 0 0 0 0 0 0 0 0 0 0 0 0 0 0 0 0 0 0.2 0"/>
<feBlend mode="normal" in2="BackgroundImageFix" result="effect1_dropShadow_231_6186"/>
<feBlend mode="normal" in="SourceGraphic" in2="effect1_dropShadow_231_6186" result="shape"/>
</filter>
<filter id="filter1_g_231_6186" x="61.5889" y="48.832" width="14.1654" height="17.9179" filterUnits="userSpaceOnUse" color-interpolation-filters="sRGB">
<feFlood flood-opacity="0" result="BackgroundImageFix"/>
<feBlend mode="normal" in="SourceGraphic" in2="BackgroundImageFix" result="shape"/>
<feTurbulence type="fractalNoise" baseFrequency="2 2" numOctaves="3" seed="2421" />
<feDisplacementMap in="shape" scale="0.60000002384185791" xChannelSelector="R" yChannelSelector="G" result="displacedImage" width="100%" height="100%" />
<feMerge result="effect1_texture_231_6186">
<feMergeNode in="displacedImage"/>
</feMerge>
</filter>
<filter id="filter2_g_231_6186" x="-0.866406" y="54.5074" width="10.2761" height="12.9527" filterUnits="userSpaceOnUse" color-interpolation-filters="sRGB">
<feFlood flood-opacity="0" result="BackgroundImageFix"/>
<feBlend mode="normal" in="SourceGraphic" in2="BackgroundImageFix" result="shape"/>
<feTurbulence type="fractalNoise" baseFrequency="2 2" numOctaves="3" seed="2421" />
<feDisplacementMap in="shape" scale="0.60000002384185791" xChannelSelector="R" yChannelSelector="G" result="displacedImage" width="100%" height="100%" />
<feMerge result="effect1_texture_231_6186">
<feMergeNode in="displacedImage"/>
</feMerge>
</filter>
<filter id="filter3_g_231_6186" x="4.54131" y="50.737" width="13.0281" height="16.466" filterUnits="userSpaceOnUse" color-interpolation-filters="sRGB">
<feFlood flood-opacity="0" result="BackgroundImageFix"/>
<feBlend mode="normal" in="SourceGraphic" in2="BackgroundImageFix" result="shape"/>
<feTurbulence type="fractalNoise" baseFrequency="2 2" numOctaves="3" seed="2421" />
<feDisplacementMap in="shape" scale="0.60000002384185791" xChannelSelector="R" yChannelSelector="G" result="displacedImage" width="100%" height="100%" />
<feMerge result="effect1_texture_231_6186">
<feMergeNode in="displacedImage"/>
</feMerge>
</filter>
<clipPath id="clip0_231_6186">
<rect x="2" y="1" width="70" height="70" rx="5" fill="white"/>
</clipPath>
</defs>
</svg>
