<svg width="164" height="74" viewBox="0 0 164 74" fill="none" xmlns="http://www.w3.org/2000/svg">
<g filter="url(#filter0_d_239_404)">
<rect x="2" y="1" width="160" height="70" rx="5" fill="#376ACE"/>
</g>
<path d="M58.024 29.184H72.056V31.024H58.024V29.184ZM60.712 36.624H69.832V38.4H60.712V36.624ZM60.888 32.288H71V39.36H69.048V34.064H60.888V32.288ZM59.496 32.288H61.448V35.856C61.448 36.432 61.416 37.0613 61.352 37.744C61.288 38.4267 61.16 39.1147 60.968 39.808C60.7867 40.5013 60.52 41.168 60.168 41.808C59.8267 42.4373 59.3787 43.0027 58.824 43.504C58.728 43.376 58.5893 43.2213 58.408 43.04C58.2267 42.8587 58.0347 42.6827 57.832 42.512C57.64 42.352 57.4693 42.2347 57.32 42.16C57.8213 41.712 58.216 41.2267 58.504 40.704C58.792 40.1707 59.0053 39.6267 59.144 39.072C59.2933 38.5067 59.3893 37.952 59.432 37.408C59.4747 36.8533 59.496 36.3253 59.496 35.824V32.288ZM78.808 31.536H89.272V33.008H78.808V31.536ZM79.736 35.824H88.184V37.216H79.736V35.824ZM79.032 37.952H88.92V39.456H79.032V37.952ZM82.856 28.528H84.712V40.752H82.856V28.528ZM79.896 29.44H88.056V35.12H79.816V33.664H86.184V30.88H79.896V29.44ZM74.328 29.296H77.704V30.976H74.328V29.296ZM77.032 29.296H77.272L77.56 29.216L78.872 29.584C78.6373 30.2027 78.36 30.8853 78.04 31.632C77.7307 32.368 77.4053 33.1093 77.064 33.856C76.7333 34.592 76.408 35.296 76.088 35.968L74.36 35.52C74.5947 35.0187 74.84 34.496 75.096 33.952C75.3627 33.3973 75.6133 32.848 75.848 32.304C76.0933 31.7493 76.3173 31.232 76.52 30.752C76.7227 30.2613 76.8933 29.84 77.032 29.488V29.296ZM75.944 33.824H78.28V35.504H75.896L75.944 33.824ZM77.528 33.824H77.88L78.216 33.776L79.336 34.032C79.1333 36.4427 78.7227 38.4267 78.104 39.984C77.4853 41.5413 76.6587 42.7093 75.624 43.488C75.528 43.3707 75.3893 43.2213 75.208 43.04C75.0373 42.8693 74.856 42.704 74.664 42.544C74.4827 42.3947 74.3227 42.2827 74.184 42.208C75.176 41.5147 75.944 40.512 76.488 39.2C77.032 37.8773 77.3787 36.1973 77.528 34.16V33.824ZM76.04 36.4C76.36 37.4453 76.7813 38.288 77.304 38.928C77.8267 39.5573 78.4293 40.0373 79.112 40.368C79.8053 40.6987 80.5627 40.9227 81.384 41.04C82.216 41.1573 83.1067 41.216 84.056 41.216C84.248 41.216 84.52 41.216 84.872 41.216C85.224 41.216 85.6133 41.216 86.04 41.216C86.4667 41.216 86.8933 41.216 87.32 41.216C87.7573 41.2053 88.1627 41.2 88.536 41.2C88.92 41.1893 89.2293 41.1787 89.464 41.168C89.3573 41.3067 89.256 41.488 89.16 41.712C89.064 41.936 88.9787 42.1653 88.904 42.4C88.8293 42.6453 88.7653 42.8587 88.712 43.04H87.864H84.008C82.8453 43.04 81.7787 42.96 80.808 42.8C79.8373 42.6507 78.9573 42.3627 78.168 41.936C77.3787 41.4987 76.68 40.88 76.072 40.08C75.4747 39.2693 74.9627 38.2187 74.536 36.928L76.04 36.4ZM91.736 30.992C92.056 30.9813 92.36 30.9707 92.648 30.96C92.936 30.9387 93.16 30.9227 93.32 30.912C93.6507 30.88 94.056 30.8427 94.536 30.8C95.016 30.7573 95.5547 30.7093 96.152 30.656C96.76 30.6027 97.4053 30.5493 98.088 30.496C98.7707 30.432 99.48 30.368 100.216 30.304C100.771 30.2613 101.325 30.224 101.88 30.192C102.435 30.1493 102.957 30.1173 103.448 30.096C103.949 30.064 104.381 30.0427 104.744 30.032L104.76 32.08C104.472 32.08 104.141 32.0853 103.768 32.096C103.395 32.1067 103.021 32.128 102.648 32.16C102.285 32.1813 101.96 32.224 101.672 32.288C101.192 32.416 100.744 32.6347 100.328 32.944C99.9227 33.2427 99.5653 33.6 99.256 34.016C98.9467 34.432 98.7067 34.88 98.536 35.36C98.376 35.8293 98.296 36.304 98.296 36.784C98.296 37.3067 98.3867 37.7707 98.568 38.176C98.7493 38.5707 99 38.912 99.32 39.2C99.6507 39.4773 100.035 39.712 100.472 39.904C100.909 40.0853 101.379 40.224 101.88 40.32C102.392 40.416 102.92 40.48 103.464 40.512L102.712 42.704C102.04 42.6613 101.384 42.5547 100.744 42.384C100.115 42.2133 99.5227 41.9787 98.968 41.68C98.424 41.3813 97.944 41.0187 97.528 40.592C97.112 40.1547 96.7867 39.6587 96.552 39.104C96.3173 38.5387 96.2 37.9093 96.2 37.216C96.2 36.4373 96.3227 35.728 96.568 35.088C96.8133 34.448 97.1173 33.888 97.48 33.408C97.8427 32.9173 98.2053 32.5387 98.568 32.272C98.2693 32.304 97.9067 32.3467 97.48 32.4C97.064 32.4427 96.6107 32.496 96.12 32.56C95.64 32.6133 95.1493 32.672 94.648 32.736C94.1467 32.8 93.6613 32.8747 93.192 32.96C92.7333 33.0347 92.3173 33.1093 91.944 33.184L91.736 30.992Z" fill="white"/>
<rect x="6" y="6" width="150" height="5" rx="2.5" fill="white" fill-opacity="0.5"/>
<defs>
<filter id="filter0_d_239_404" x="0" y="0" width="164" height="74" filterUnits="userSpaceOnUse" color-interpolation-filters="sRGB">
<feFlood flood-opacity="0" result="BackgroundImageFix"/>
<feColorMatrix in="SourceAlpha" type="matrix" values="0 0 0 0 0 0 0 0 0 0 0 0 0 0 0 0 0 0 127 0" result="hardAlpha"/>
<feOffset dy="1"/>
<feGaussianBlur stdDeviation="1"/>
<feComposite in2="hardAlpha" operator="out"/>
<feColorMatrix type="matrix" values="0 0 0 0 0 0 0 0 0 0 0 0 0 0 0 0 0 0 0.2 0"/>
<feBlend mode="normal" in2="BackgroundImageFix" result="effect1_dropShadow_239_404"/>
<feBlend mode="normal" in="SourceGraphic" in2="effect1_dropShadow_239_404" result="shape"/>
</filter>
</defs>
</svg>
