<svg width="198" height="33" viewBox="0 0 198 33" fill="none" xmlns="http://www.w3.org/2000/svg">
<path d="M0 9.82634C1.96527 7.86108 1.96527 4.91317 1.71961 3.68488H5.65015C5.84667 7.61542 3.93054 10.8909 2.9479 12.0373L0 9.82634Z" fill="#0589C6"/>
<path d="M9.08937 7.1241V2.70224H12.7742V7.86108C12.8561 8.10673 12.6269 8.99111 11.0546 10.5633C9.48242 12.1355 7.45164 12.201 6.63278 12.0373V8.59805C8.79458 8.59805 9.17126 7.61542 9.08937 7.1241Z" fill="#0589C6"/>
<path d="M16.2135 7.1241V3.68488H19.407C19.2433 4.33997 19.014 5.84668 19.407 6.63278C19.8001 7.41889 21.0448 9.41691 21.618 10.3177L18.9157 12.0373C16.5574 9.48242 16.1316 7.6973 16.2135 7.1241Z" fill="#0589C6"/>
<path d="M0 14.7395C8.45066 14.936 13.5112 11.0546 14.9852 9.08937L17.1961 12.0373C16.7867 12.6924 15.4765 14.1499 13.5112 14.7395H21.1266V29.7247H1.71961V18.1787H0V14.7395Z" fill="#0589C6"/>
<path d="M30.216 10.5633V7.1241H42.7446V10.5633H38.5684V26.2855H43.7272V29.7247H29.2334V26.2855H34.8835V10.5633H30.216Z" fill="#0589C6"/>
<path d="M59.9407 7.1241V5.15883H63.8712V7.1241H67.8018V10.5633C67.4087 13.7078 65.3452 16.6229 64.3626 17.6874L70.504 21.8636L68.2931 24.8115L63.8712 21.3723V29.7247H59.9407V21.8636C58.565 23.2393 55.9283 24.0745 54.7819 24.3202L53.3079 20.881C59.9898 18.7192 63.1343 13.1018 63.8712 10.5633H55.7645V7.1241H59.9407Z" fill="#0589C6"/>
<path d="M75.4172 29.7247V0H97.5265L103.177 3.68488V32.9183L97.5265 29.7247H75.4172Z" fill="#0589C6"/>
<path d="M127.251 8.10673V5.65015H130.69V8.10673H133.638V11.7916H130.69L130.199 14.7395L132.41 13.5112L134.867 17.1961V3.68488H145.921V29.7247H134.867V17.1961L131.673 18.9157L130.69 17.1961V29.7247H127.251V18.9157C127.251 21.274 125.122 23.5013 124.058 24.3202V18.9157C125.63 16.5574 126.514 13.1837 126.76 11.7916H123.566V8.10673H127.251Z" fill="#0589C6"/>
<path d="M150.589 6.14147C150.671 5.3226 150.785 3.68488 150.589 3.68488H157.222V6.14147H150.589Z" fill="#0589C6"/>
<path d="M149.852 10.5633V7.1241H158.204V10.5633H149.852Z" fill="#0589C6"/>
<path d="M150.589 14.7395V12.2829H157.222V14.7395H150.589Z" fill="#0589C6"/>
<path d="M150.589 18.4244V15.9678H157.222V18.4244H150.589Z" fill="#0589C6"/>
<path d="M149.852 29.7247V20.144H158.204V26.2855C161.742 24.3202 162.626 21.3723 162.626 20.144V15.9678H166.311V20.144C166.507 23.485 169.832 26.1217 171.47 27.0224L169.504 29.7247C166.95 28.7421 165.328 26.3674 164.837 25.3028C163.461 27.2681 160.824 29.0696 159.678 29.7247L158.204 27.7594V29.7247H149.852Z" fill="#0589C6"/>
<path d="M157.958 14.0025C162.675 12.4303 163.363 5.81392 163.117 2.70224H166.311C165.525 10.9564 169.75 13.8388 171.961 14.2482L169.504 17.1961C166.36 15.8204 165.083 13.3475 164.837 12.2829C163.609 15.4765 160.661 16.7867 159.678 17.1961L157.958 14.0025Z" fill="#0589C6"/>
<path d="M158.941 9.82634L159.678 5.15883H162.135L161.398 9.82634H158.941Z" fill="#0589C6"/>
<path d="M167.785 9.82634V5.15883H170.733V9.82634H167.785Z" fill="#0589C6"/>
<path d="M184.735 5.15883V2.70224H188.911V5.15883H197.51V11.0546H193.825V9.08937H179.331V11.0546H175.646V5.15883H184.735Z" fill="#0589C6"/>
<path d="M180.313 13.2656V9.82634H193.088V13.2656H185.718L183.753 15.9678H189.648V14.7395L193.825 14.2482L194.562 20.144L190.385 19.8983V18.9157L188.174 19.407V21.3723H195.79V24.3202H188.174V26.2855H197.51V29.7247H175.646V26.2855H184.981V24.3202H177.366V21.3723H184.981V19.8983L179.331 20.144V15.9678L182.524 13.2656H180.313Z" fill="#0589C6"/>
<path d="M76.8911 28.742V1.22821H96.5438V28.742H76.8911Z" fill="white"/>
<path d="M80.0847 14.7395C80.0847 10.8089 84.0153 9.13768 86.7175 9.08931C89.4197 9.04095 93.5959 10.8089 93.5959 14.7395C93.5959 18.67 90.1567 19.6526 90.1567 21.8636V26.2854C89.8292 26.9405 88.6828 28.2507 86.7175 28.2507C84.7522 28.2507 83.7696 26.9405 83.5239 26.2854V21.8636C83.5239 19.407 80.0847 19.6526 80.0847 14.7395Z" fill="#0589C6"/>
<path d="M84.5066 22.3549H86.4719V20.3896C84.9979 19.407 84.0153 17.933 84.0153 17.933C83.6877 17.4417 83.1309 15.3291 84.5066 14.7395C85.8823 14.1499 86.6356 15.067 86.9632 15.4765C87.4545 14.2482 90.4024 14.0025 90.4024 16.4591C90.4024 18.4633 88.2734 19.8983 87.4545 20.3896V22.3549H89.1741V20.6353C89.9111 19.1613 92.6133 18.9157 92.6133 14.9851C92.6133 11.7916 89.1741 10.3176 86.7175 10.3176C84.5885 10.3995 81.0674 11.4477 81.0674 14.9851C81.0674 18.5226 83.524 18.67 84.5066 20.6353V22.3549Z" fill="white"/>
<path d="M86.291 16.2747C86.0707 16.9482 86.4719 17.5236 86.9632 17.6874C87.6251 17.5413 87.7916 16.6079 87.6251 16.2747C87.3794 15.7834 87.9058 15.3737 88.1915 15.2308C88.6828 14.9851 89.4198 15.2308 89.552 16.2747C89.7266 17.6534 87.7002 19.0795 86.9632 19.6527C86.0624 18.9157 84.5066 17.6874 84.5066 16.7048C84.5066 15.4765 85.2436 14.9851 85.7349 15.2308C86.0456 15.3862 86.4719 15.7221 86.291 16.2747Z" fill="#FDD11A"/>
<path d="M5.15881 20.8809V19.407H17.4417V20.8809H5.15881Z" fill="white"/>
<path d="M5.15881 23.8288V22.3549H17.4417V23.8288H5.15881Z" fill="white"/>
<path d="M5.15881 26.7767V25.3028H17.4417V26.7767H5.15881Z" fill="white"/>
<path d="M152.8 26.2855V23.3376H154.765V26.2855H152.8Z" fill="white"/>
<path d="M138.06 11.0546V7.12408H142.236V11.0546H138.06Z" fill="white"/>
<path d="M138.06 18.9157V14.2482H142.236V18.9157H138.06Z" fill="white"/>
<path d="M138.06 26.2855V21.8636H142.236V26.2855H138.06Z" fill="white"/>
<g filter="url(#filter0_f_231_5623)">
<circle cx="86.963" cy="16.2135" r="2.9479" fill="#FDD11A"/>
</g>
<path d="M81.0673 9.33501L78.6107 6.63276M83.7695 8.10671L82.0499 4.17618M86.7175 7.6154V3.19354M89.911 8.10671L92.1219 4.17618M92.6133 9.33501L95.0698 6.63276" stroke="#FFBD73"/>
<path d="M105.879 7.61544C106.272 3.88143 108.827 3.1117 110.055 3.19359C111.529 3.19359 113.74 3.6849 114.477 5.89582C115.176 7.99329 114.231 10.3177 113.249 11.0547C112.266 11.7916 112.02 12.2829 112.02 12.2829C112.184 12.1192 112.757 11.8899 113.74 12.2829C114.723 12.676 115.623 13.9207 115.951 14.4939L119.39 25.5485C119.472 25.9579 119.488 26.8751 118.899 27.2681C118.162 27.7594 117.425 27.5138 116.933 26.7768C116.54 26.1872 115.296 22.6006 114.723 20.881V31.4443H105.633V18.6701C104.651 19.6527 103.258 20.2259 102.685 20.3897C101.211 20.144 99.9831 18.1788 98.5091 15.9678C97.0352 13.7569 97.5265 13.5112 98.5091 12.7743C99.2952 12.1847 100.147 12.6924 100.474 13.0199C101.26 14.3956 102.276 15.5584 102.685 15.9678C102.931 15.8859 103.668 15.3782 104.651 14.0026C105.633 12.6269 107.189 12.2829 107.844 12.2829C107.598 10.5633 105.879 10.809 105.879 7.61544Z" fill="white"/>
<path d="M106.09 13.3586C107.033 12.5418 109.311 12.4947 110.333 12.4947C110.333 12.4947 112.925 12.3848 113.868 12.8874C114.811 13.3901 115.466 14.4582 115.675 14.9294C116.775 18.228 118.975 24.5895 118.897 25.4534C118.818 26.3173 118.661 26.8671 117.954 26.7886C117.247 26.71 117.09 26.4744 116.461 24.5895C115.958 23.0816 114.733 20.0867 114.183 18.7777V28.9876H106.09V17.5211L103.576 19.4846C103.235 19.694 102.397 19.9872 101.768 19.4846C101.14 18.9819 99.3066 16.2384 98.4685 14.9294C98.259 14.5891 98.0285 13.7984 98.7828 13.3586C99.5371 12.9188 99.9876 13.1754 100.119 13.3586C100.668 14.4582 101.926 16.6415 102.554 16.5787C103.183 16.5159 103.497 16.186 103.576 16.0289C104.021 15.4792 105.147 14.1754 106.09 13.3586Z" fill="#0589C6"/>
<path d="M110.333 11.5523C107.504 11.6151 106.64 9.11759 106.561 7.86099H113.868C113.868 9.06524 113.161 11.4894 110.333 11.5523Z" fill="#0589C6"/>
<path d="M106.616 7.86108C106.616 7.86108 106.616 3.93054 110.055 3.93054C113.494 3.93054 113.986 6.57137 113.986 7.86108" stroke="#0589C6"/>
<defs>
<filter id="filter0_f_231_5623" x="75.9151" y="5.16556" width="22.0958" height="22.0958" filterUnits="userSpaceOnUse" color-interpolation-filters="sRGB">
<feFlood flood-opacity="0" result="BackgroundImageFix"/>
<feBlend mode="normal" in="SourceGraphic" in2="BackgroundImageFix" result="shape"/>
<feGaussianBlur stdDeviation="4.05" result="effect1_foregroundBlur_231_5623"/>
</filter>
</defs>
</svg>
