<svg width="282" height="47" viewBox="0 0 282 47" fill="none" xmlns="http://www.w3.org/2000/svg">
<path d="M0 13.986C2.79721 11.1888 2.79721 6.99302 2.44756 5.24477H8.04198C8.3217 10.8392 5.59442 15.5012 4.19581 17.1329L0 13.986Z" fill="white"/>
<path d="M12.9371 10.1399V3.84616H18.1819V11.1888C18.2984 11.5385 17.9721 12.7972 15.7343 15.035C13.4965 17.2728 10.6061 17.366 9.44058 17.1329V12.2378C12.5175 12.2378 13.0536 10.8392 12.9371 10.1399Z" fill="white"/>
<path d="M23.077 10.1399V5.24477H27.6224C27.3893 6.17717 27.063 8.3217 27.6224 9.44058C28.1819 10.5595 29.9534 13.4033 30.7693 14.6853L26.9231 17.1329C23.5665 13.4965 22.9604 10.9557 23.077 10.1399Z" fill="white"/>
<path d="M0 20.9791C12.028 21.2588 19.2308 15.7343 21.3287 12.9371L24.4756 17.1329C23.8928 18.0653 22.028 20.1399 19.2308 20.9791H30.07V42.3078H2.44756V25.8742H0V20.9791Z" fill="white"/>
<path d="M43.0071 15.035V10.1399H60.8393V15.035H54.8952V37.4127H62.2379V42.3078H41.6085V37.4127H49.6505V15.035H43.0071Z" fill="white"/>
<path d="M85.3149 10.1399V7.34267H90.9093V10.1399H96.5037V15.035C95.9443 19.5105 93.0072 23.6597 91.6086 25.1749L100.35 31.1189L97.203 35.3148L90.9093 30.4196V42.3078H85.3149V31.1189C83.3568 33.077 79.6039 34.2658 77.9722 34.6155L75.8743 29.7203C85.3848 26.6434 89.8603 18.6481 90.9093 15.035H79.3708V10.1399H85.3149Z" fill="white"/>
<path d="M107.343 42.3078V0H138.811L146.853 5.24477V46.8533L138.811 42.3078H107.343Z" fill="white"/>
<path d="M181.119 11.5385V8.04198H186.014V11.5385H190.21V16.7833H186.014L185.315 20.9791L188.462 19.2308L191.958 24.4756V5.24477H207.693V42.3078H191.958V24.4756L187.413 26.9231L186.014 24.4756V42.3078H181.119V26.9231C181.119 30.2798 178.089 33.45 176.574 34.6155V26.9231C178.812 23.5665 180.07 18.7646 180.42 16.7833H175.875V11.5385H181.119Z" fill="white"/>
<path d="M214.336 8.74128C214.453 7.57577 214.616 5.24477 214.336 5.24477H223.777V8.74128H214.336Z" fill="white"/>
<path d="M213.287 15.035V10.1399H225.175V15.035H213.287Z" fill="white"/>
<path d="M214.336 20.9791V17.4826H223.777V20.9791H214.336Z" fill="white"/>
<path d="M214.336 26.2238V22.7273H223.777V26.2238H214.336Z" fill="white"/>
<path d="M213.287 42.3078V28.6714H225.175V37.4127C230.21 34.6155 231.469 30.4196 231.469 28.6714V22.7273H236.714V28.6714C236.994 33.4266 241.725 37.1796 244.056 38.4616L241.259 42.3078C237.623 40.9092 235.315 37.5292 234.616 36.0141C232.658 38.8113 228.905 41.3754 227.273 42.3078L225.175 39.5106V42.3078H213.287Z" fill="white"/>
<path d="M224.826 19.9301C231.539 17.6923 232.518 8.27508 232.168 3.84616H236.714C235.595 15.5944 241.609 19.697 244.756 20.2798L241.259 24.4756C236.784 22.5175 234.966 18.9977 234.616 17.4826C232.868 22.028 228.672 23.8928 227.273 24.4756L224.826 19.9301Z" fill="white"/>
<path d="M226.224 13.986L227.273 7.34267H230.77L229.721 13.986H226.224Z" fill="white"/>
<path d="M238.812 13.986V7.34267H243.008V13.986H238.812Z" fill="white"/>
<path d="M262.938 7.34267V3.84616H268.882V7.34267H281.12V15.7343H275.875V12.9371H255.245V15.7343H250.001V7.34267H262.938Z" fill="white"/>
<path d="M256.644 18.8812V13.986H274.826V18.8812H264.336L261.539 22.7273H269.931V20.9791L275.875 20.2798L276.924 28.6714L270.98 28.3217V26.9231L267.833 27.6224V30.4196H278.672V34.6155H267.833V37.4127H281.12V42.3078H250.001V37.4127H263.287V34.6155H252.448V30.4196H263.287V28.3217L255.245 28.6714V22.7273L259.791 18.8812H256.644Z" fill="white"/>
<path d="M109.441 40.9091V1.74814H137.413V40.9091H109.441Z" fill="#022771"/>
<path d="M113.986 20.979C113.986 15.3846 119.581 13.0059 123.427 12.937C127.273 12.8682 133.217 15.3846 133.217 20.979C133.217 26.5734 128.322 27.972 128.322 31.1189V37.4126C127.856 38.345 126.224 40.2098 123.427 40.2098C120.63 40.2098 119.231 38.345 118.881 37.4126V31.1189C118.881 27.6224 113.986 27.972 113.986 20.979Z" fill="white"/>
<path d="M120.28 31.8182H123.077V29.021C120.979 27.6224 119.581 25.5245 119.581 25.5245C119.114 24.8252 118.322 21.8182 120.28 20.979C122.238 20.1399 123.31 21.4452 123.777 22.028C124.476 20.2797 128.672 19.9301 128.672 23.4266C128.672 26.2792 125.641 28.3217 124.476 29.021V31.8182H126.923V29.3706C127.972 27.2727 131.818 26.9231 131.818 21.3287C131.818 16.7832 126.923 14.6853 123.427 14.6853C120.397 14.8019 115.385 16.2937 115.385 21.3287C115.385 26.3636 118.881 26.5734 120.28 29.3706V31.8182Z" fill="#022771"/>
<path d="M122.82 23.1642C122.506 24.1227 123.077 24.9417 123.777 25.1748C124.719 24.9669 124.956 23.6383 124.719 23.1642C124.369 22.4649 125.118 21.8817 125.525 21.6784C126.224 21.3287 127.273 21.6783 127.461 23.1642C127.71 25.1264 124.826 27.1562 123.777 27.972C122.495 26.9231 120.28 25.1748 120.28 23.7762C120.28 22.028 121.329 21.3287 122.028 21.6783C122.471 21.8995 123.077 22.3776 122.82 23.1642Z" fill="#FDD11A"/>
<path d="M7.34265 29.7202V27.6223H24.8252V29.7202H7.34265Z" fill="#022771"/>
<path d="M7.34265 33.916V31.8181H24.8252V33.916H7.34265Z" fill="#022771"/>
<path d="M7.34265 38.1118V36.0139H24.8252V38.1118H7.34265Z" fill="#022771"/>
<path d="M217.483 37.4127V33.2169H220.28V37.4127H217.483Z" fill="#022771"/>
<path d="M196.504 15.7343V10.1399H202.448V15.7343H196.504Z" fill="#022771"/>
<path d="M196.504 26.9231V20.2797H202.448V26.9231H196.504Z" fill="#022771"/>
<path d="M196.504 37.4126V31.1189H202.448V37.4126H196.504Z" fill="#022771"/>
<g filter="url(#filter0_f_231_5641)">
<circle cx="123.776" cy="23.077" r="4.19581" fill="#FDD11A"/>
</g>
<path d="M115.385 13.2867L111.888 9.44056M119.231 11.5385L116.783 5.94405M123.427 10.8392V4.54544M127.972 11.5385L131.119 5.94405M131.818 13.2867L135.315 9.44056" stroke="#FFBD73"/>
<path d="M150.7 10.8393C151.259 5.52457 154.896 4.42899 156.644 4.54554C158.742 4.54554 161.888 5.24484 162.937 8.3917C163.933 11.3771 162.588 14.6854 161.189 15.7344C159.791 16.7833 159.441 17.4826 159.441 17.4826C159.674 17.2495 160.49 16.9232 161.888 17.4826C163.287 18.0421 164.569 19.8136 165.035 20.6295L169.93 36.3638C170.047 36.9465 170.07 38.2519 169.231 38.8113C168.182 39.5106 167.133 39.161 166.434 38.112C165.874 37.2729 164.103 32.168 163.287 29.7204V44.7554H150.35V26.5736C148.951 27.9722 146.97 28.788 146.154 29.0211C144.056 28.6715 142.308 25.8743 140.21 22.7274C138.112 19.5805 138.812 19.2309 140.21 18.1819C141.329 17.3428 142.541 18.0654 143.007 18.5316C144.126 20.4896 145.571 22.1446 146.154 22.7274C146.504 22.6108 147.553 21.8882 148.951 19.9302C150.35 17.9721 152.564 17.4826 153.497 17.4826C153.147 15.0351 150.7 15.3847 150.7 10.8393Z" fill="#022771"/>
<path d="M151 19.0137C152.342 17.8511 155.585 17.784 157.039 17.784C157.039 17.784 160.729 17.6275 162.071 18.343C163.413 19.0584 164.345 20.5786 164.643 21.2494C166.209 25.9443 169.34 34.9988 169.228 36.2284C169.117 37.4581 168.893 38.2406 167.886 38.1288C166.88 38.017 166.656 37.6816 165.762 34.9988C165.046 32.8526 163.301 28.5899 162.519 26.7268V41.2587H151V24.9382L147.421 27.7328C146.937 28.0309 145.744 28.4483 144.849 27.7328C143.955 27.0174 141.345 23.1124 140.152 21.2494C139.854 20.765 139.526 19.6397 140.6 19.0137C141.673 18.3877 142.314 18.7528 142.501 19.0137C143.284 20.5786 145.073 23.6862 145.968 23.5968C146.862 23.5074 147.31 23.0379 147.421 22.8143C148.055 22.0318 149.658 20.1762 151 19.0137Z" fill="white"/>
<path d="M157.039 16.4426C153.013 16.532 151.783 12.9773 151.671 11.1888H162.071C162.071 12.9028 161.065 16.3532 157.039 16.4426Z" fill="white"/>
<path d="M151.749 11.1888C151.749 11.1888 151.748 5.59442 156.644 5.59442C161.539 5.59442 162.238 9.35317 162.238 11.1888" stroke="white"/>
<defs>
<filter id="filter0_f_231_5641" x="111.481" y="10.7812" width="24.5916" height="24.5916" filterUnits="userSpaceOnUse" color-interpolation-filters="sRGB">
<feFlood flood-opacity="0" result="BackgroundImageFix"/>
<feBlend mode="normal" in="SourceGraphic" in2="BackgroundImageFix" result="shape"/>
<feGaussianBlur stdDeviation="4.05" result="effect1_foregroundBlur_231_5641"/>
</filter>
</defs>
</svg>
